<?xml version="1.0" encoding="iso-8859-1"?>
<!-- Generator: Adobe Illustrator 19.0.0, SVG Export Plug-In . SVG Version: 6.00 Build 0)  -->
<svg version="1.1" id="Layer_1" xmlns="http://www.w3.org/2000/svg" xmlns:xlink="http://www.w3.org/1999/xlink" x="0px" y="0px"
	 viewBox="0 0 275.544 275.544" style="enable-background:new 0 0 275.544 275.544;" xml:space="preserve">
<g>
	<g>
		<g>
			<g>
				<path style="fill:#2D213F;" d="M267.194,117.141c-4.367,0-8.026,3.371-8.279,7.722c-4.159,72.125-62.263,130.05-134.555,134.084
					c-4.364,0.243-7.747,3.899-7.747,8.263l0,0c0,4.793,4.056,8.593,8.849,8.321c80.587-4.579,145.346-69.139,150.068-149.54
					C275.81,121.201,272,117.141,267.194,117.141z"/>
			</g>
		</g>
		<g>
			<g>
				<path style="fill:#2D213F;" d="M128.18,17.308c45.721,5.28,82.448,42.065,87.607,87.712
					c6.501,57.508-36.247,106.798-91.471,111.185c-4.341,0.346-7.706,3.912-7.706,8.257c0,4.832,4.127,8.696,8.955,8.318
					c64.439-5.072,114.341-62.574,106.763-129.668C226.314,49.838,183.429,6.918,130.07,0.792C63.27-6.875,5.925,42.12,0.036,105.77
					c-0.449,4.851,3.441,9.035,8.324,9.035c4.309,0,7.863-3.294,8.263-7.574C21.714,52.671,70.902,10.689,128.18,17.308z"/>
			</g>
		</g>
		<g>
			<g>
				<path style="fill:#2D213F;" d="M172.52,110.093c3.524,31.415-18.952,58.466-48.653,62.446c-4.108,0.551-7.257,3.883-7.257,8.02
					v0.49c0,4.925,4.38,8.632,9.272,7.991c38.592-5.056,67.822-40.204,63.163-81c-3.729-32.665-29.675-59.274-62.295-63.827
					c-22.059-3.079-42.52,3.774-57.71,16.661c-3.633,3.082-3.688,8.686-0.317,12.05c3.015,3.012,7.872,3.313,11.127,0.561
					c11.313-9.574,26.404-14.818,42.728-13.043C148.535,63.26,169.614,84.195,172.52,110.093z"/>
			</g>
		</g>
		<g>
			<g>
				<path style="fill:#2D213F;" d="M122.486,133.953c-3.444,1.221-5.876,4.29-5.876,7.939c0,5.569,5.424,9.737,10.721,7.988
					c13.995-4.627,24.12-17.801,24.12-33.302s-10.125-28.676-24.12-33.302c-5.296-1.749-10.721,2.419-10.721,7.988
					c0,3.649,2.432,6.716,5.876,7.939c7.164,2.541,12.313,9.362,12.313,17.378C134.802,124.591,129.653,131.412,122.486,133.953z"/>
			</g>
		</g>
	</g>
</g>
<g>
</g>
<g>
</g>
<g>
</g>
<g>
</g>
<g>
</g>
<g>
</g>
<g>
</g>
<g>
</g>
<g>
</g>
<g>
</g>
<g>
</g>
<g>
</g>
<g>
</g>
<g>
</g>
<g>
</g>
</svg>
