<?xml version="1.0" encoding="iso-8859-1"?>
<!-- Generator: Adobe Illustrator 17.1.0, SVG Export Plug-In . SVG Version: 6.00 Build 0)  -->
<!DOCTYPE svg PUBLIC "-//W3C//DTD SVG 1.1//EN" "http://www.w3.org/Graphics/SVG/1.1/DTD/svg11.dtd">
<svg version="1.1" id="Capa_1" xmlns="http://www.w3.org/2000/svg" xmlns:xlink="http://www.w3.org/1999/xlink" x="0px" y="0px"
	 viewBox="0 0 214.899 214.899" style="enable-background:new 0 0 214.899 214.899;" xml:space="preserve">
<path d="M210.554,107.709c-0.003-0.018-0.006-0.035-0.01-0.053c-1.853-10.325-4.31-20.876-7.409-30.1
	c-4.995-14.87-18.621-50.426-37.233-59.411c-15.09-7.284-43.136,8.478-50.616,12.984H99.612
	c-7.48-4.506-35.526-20.268-50.617-12.984c-5.143,2.483-9.902,6.999-14.206,12.542c-0.012,0.014-0.028,0.025-0.04,0.039
	c-0.018,0.021-0.028,0.046-0.045,0.067C23.474,45.31,15.368,66.822,11.763,77.556c-7.844,23.353-11.599,55.209-11.76,70.372
	c-0.145,13.599,4.278,32.864,14.332,43.025c5.052,5.106,11.052,7.695,17.834,7.695c17.599,0,34.797-11.998,51.116-35.661
	c2.44-3.538,4.632-7.071,6.563-10.411v3.922c0,9.705,7.896,17.601,17.602,17.601c9.705,0,17.601-7.896,17.601-17.601v-3.922
	c1.931,3.34,4.122,6.873,6.563,10.411c16.319,23.663,33.518,35.661,51.116,35.661c6.782,0,12.782-2.589,17.834-7.694
	c10.054-10.161,14.477-29.426,14.333-43.025C214.798,138.765,213.386,123.504,210.554,107.709z M28.653,61.58
	c5.353,2.471,15.022,6.018,29.855,8.251c6.275,0.945,11.873,1.297,16.736,1.297c6.044,0,10.947-0.545,14.603-1.176v5.125
	c-7.154,3.522-24.571,11.06-42.595,11.06c-15.219,0-22.789-3.523-25.938-5.608C23.406,74.321,25.889,67.832,28.653,61.58z
	 M39.762,40.823c4.042,2.584,10.802,6.323,19.934,9.314c7.687,2.518,16.992,3.161,24.491,3.161c2.047,0,3.953-0.049,5.661-0.12v6.59
	c-5.326,1.083-15.596,2.318-29.851,0.173c-13.776-2.074-22.52-5.316-27.048-7.393C35.116,48.32,37.399,44.346,39.762,40.823z
	 M181.95,52.548c-4.538,2.082-13.279,5.322-27.047,7.394c-14.257,2.147-24.526,0.911-29.852-0.173v-6.591
	c1.708,0.071,3.613,0.12,5.661,0.12c7.499,0,16.806-0.643,24.491-3.161c9.132-2.991,15.891-6.73,19.934-9.314
	C177.5,44.346,179.783,48.32,181.95,52.548z M193.6,80.572c-3.063,2.041-10.58,5.564-25.953,5.564
	c-17.966,0-35.425-7.545-42.596-11.065v-5.119c3.656,0.631,8.559,1.176,14.604,1.176c4.863,0,10.462-0.353,16.736-1.297
	c14.834-2.233,24.502-5.78,29.855-8.251C189.017,67.847,191.505,74.352,193.6,80.572z M202.919,123.915
	c-0.812,3.012-5.119,14.721-23.023,14.721c-17.042,0-43.491-23.447-54.846-35.06v-0.269c11.299,7.592,31.187,19.078,48.096,19.078
	c13.691,0,23.028-2.947,28.749-5.679C202.272,119.155,202.614,121.566,202.919,123.915z M47.253,96.136
	c17.043,0,33.191-5.822,42.595-10.006v4.949c-7.839,5.747-30.675,21.306-48.095,21.306c-14.877,0-23.388-3.88-26.971-6.037
	c1.028-5.396,2.224-10.796,3.589-15.951C23.736,93.235,32.758,96.136,47.253,96.136z M200.116,106.344
	c-3.613,2.177-12.121,6.042-26.969,6.042c-17.387,0-40.249-15.564-48.096-21.31v-4.946c9.404,4.184,25.552,10.006,42.596,10.006
	c14.495,0,23.517-2.902,28.882-5.738C197.893,95.551,199.088,100.949,200.116,106.344z M41.753,122.386
	c16.908,0,36.796-11.486,48.095-19.078v0.271c-11.347,11.613-37.781,35.057-54.845,35.057c-17.788,0-22.154-11.533-23.022-14.73
	c0.305-2.346,0.646-4.754,1.022-7.199C18.725,119.439,28.061,122.386,41.753,122.386z M10.372,139.72
	c5.231,4.962,13.158,8.916,24.631,8.916c17.32,0,39.003-16.79,52.287-28.789c-11.528,17.229-34.831,46.539-52.537,46.539
	c-21.39,0-24.247-21.513-24.53-24.35C10.266,141.29,10.317,140.513,10.372,139.72z M179.897,148.636
	c11.473,0,19.4-3.954,24.631-8.916c0.056,0.796,0.107,1.577,0.15,2.327c-0.271,2.884-3.011,24.339-24.531,24.339
	c-17.682,0-40.989-29.3-52.528-46.53C140.904,131.854,162.581,148.636,179.897,148.636z M161.556,27.151
	c2.476,1.195,4.948,3.183,7.377,5.756c-3.557,2.193-9.284,5.251-16.843,7.728c-8.48,2.778-19.868,2.844-27.039,2.525v-6.125
	C137.212,30.362,154.134,23.566,161.556,27.151z M53.343,27.151c7.404-3.574,24.335,3.219,36.505,9.889v6.124
	c-7.163,0.321-18.537,0.255-27.039-2.529c-7.561-2.477-13.289-5.536-16.844-7.728C48.396,30.334,50.867,28.346,53.343,27.151z
	 M75.053,157.309c-14.341,20.795-28.77,31.339-42.884,31.339c-4.07,0-7.578-1.546-10.726-4.728
	c-3.705-3.744-6.357-9.142-8.173-14.844c5.186,4.337,12.183,7.31,21.482,7.31c12.938,0,27.951-9.928,44.62-29.509
	c2.319-2.724,4.501-5.438,6.518-8.049C83.281,144.03,79.604,150.711,75.053,157.309z M193.455,183.921
	c-3.148,3.181-6.656,4.728-10.726,4.728c-14.114,0-28.542-10.544-42.884-31.339c-4.55-6.598-8.227-13.279-10.837-18.48
	c2.017,2.612,4.199,5.325,6.517,8.049c16.67,19.581,31.682,29.509,44.621,29.509c9.299,0,16.296-2.973,21.482-7.31
	C199.812,174.778,197.16,180.176,193.455,183.921z"/>
<g>
</g>
<g>
</g>
<g>
</g>
<g>
</g>
<g>
</g>
<g>
</g>
<g>
</g>
<g>
</g>
<g>
</g>
<g>
</g>
<g>
</g>
<g>
</g>
<g>
</g>
<g>
</g>
<g>
</g>
</svg>
