<?xml version="1.0" encoding="iso-8859-1"?>
<!-- Generator: Adobe Illustrator 18.1.1, SVG Export Plug-In . SVG Version: 6.00 Build 0)  -->
<svg version="1.1" id="Capa_1" xmlns="http://www.w3.org/2000/svg" xmlns:xlink="http://www.w3.org/1999/xlink" x="0px" y="0px"
	 viewBox="0 0 26.841 26.841" style="enable-background:new 0 0 26.841 26.841;" xml:space="preserve">
<g>
	<path d="M14.345,16.489c1.363,1.625,2.188,3.715,2.188,6.002c-0.006,0.049,0.012,0.104,0.049,0.143
		c0.033,0.037,0.084,0.061,0.137,0.061h3.662c0.105,0,0.188-0.115,0.188-0.217c0-3.203-1.133-6.146-3.018-8.449
		C16.311,14.61,15.219,15.45,14.345,16.489z"/>
	<path d="M12.33,9.186C10.288,7.891,7.88,7.118,5.284,7.09V4.329c0-0.08-0.043-0.146-0.113-0.174
		C5.102,4.13,5.019,4.143,4.966,4.196L0.053,9.131c-0.07,0.072-0.07,0.191,0,0.262l4.914,4.922c0.053,0.057,0.135,0.072,0.205,0.041
		c0.07-0.029,0.113-0.096,0.113-0.17v-3.062c1.373,0.015,2.674,0.338,3.844,0.886C10.035,10.905,11.119,9.956,12.33,9.186z"/>
	<path d="M26.783,9.719l-5.535-5.553c-0.064-0.055-0.15-0.074-0.232-0.043c-0.076,0.031-0.127,0.105-0.127,0.193v3.109
		c-2.918,0.031-5.635,0.9-7.934,2.363c-1.365,0.865-2.586,1.934-3.607,3.178c-2.125,2.598-3.398,5.912-3.398,9.516
		c0,0.117,0.092,0.25,0.207,0.25h4.127c0.059,0,0.115-0.029,0.152-0.07c0.045-0.043,0.061-0.102,0.057-0.162
		c0-2.572,0.932-4.928,2.461-6.758c0.98-1.172,2.211-2.119,3.607-2.775c1.318-0.621,2.781-0.98,4.328-0.996v3.447
		c0,0.082,0.051,0.16,0.127,0.193c0.082,0.033,0.168,0.012,0.232-0.045l5.535-5.547C26.861,9.942,26.861,9.805,26.783,9.719z"/>
	<g>
	</g>
	<g>
	</g>
	<g>
	</g>
	<g>
	</g>
	<g>
	</g>
	<g>
	</g>
	<g>
	</g>
	<g>
	</g>
	<g>
	</g>
	<g>
	</g>
	<g>
	</g>
	<g>
	</g>
	<g>
	</g>
	<g>
	</g>
	<g>
	</g>
</g>
<g>
</g>
<g>
</g>
<g>
</g>
<g>
</g>
<g>
</g>
<g>
</g>
<g>
</g>
<g>
</g>
<g>
</g>
<g>
</g>
<g>
</g>
<g>
</g>
<g>
</g>
<g>
</g>
<g>
</g>
</svg>
