<?xml version="1.0" encoding="iso-8859-1"?>
<!-- Generator: Adobe Illustrator 19.0.0, SVG Export Plug-In . SVG Version: 6.00 Build 0)  -->
<svg version="1.1" id="Capa_1" xmlns="http://www.w3.org/2000/svg" xmlns:xlink="http://www.w3.org/1999/xlink" x="0px" y="0px"
	 viewBox="0 0 60 60" style="enable-background:new 0 0 60 60;" xml:space="preserve">
<g>
	<path d="M46,32H14C6.28,32,0,38.28,0,46s6.28,14,14,14h32c7.72,0,14-6.28,14-14S53.72,32,46,32z M46,58H14C7.383,58,2,52.617,2,46
		s5.383-12,12-12h32c6.617,0,12,5.383,12,12S52.617,58,46,58z"/>
	<path d="M14,28h32c7.72,0,14-6.28,14-14S53.72,0,46,0H14C6.28,0,0,6.28,0,14S6.28,28,14,28z M46,4c5.514,0,10,4.486,10,10
		s-4.486,10-10,10s-10-4.486-10-10S40.486,4,46,4z"/>
</g>
<g>
</g>
<g>
</g>
<g>
</g>
<g>
</g>
<g>
</g>
<g>
</g>
<g>
</g>
<g>
</g>
<g>
</g>
<g>
</g>
<g>
</g>
<g>
</g>
<g>
</g>
<g>
</g>
<g>
</g>
</svg>
