<?xml version="1.0" encoding="iso-8859-1"?>
<!-- Generator: Adobe Illustrator 19.0.0, SVG Export Plug-In . SVG Version: 6.00 Build 0)  -->
<svg version="1.1" id="Capa_1" xmlns="http://www.w3.org/2000/svg" xmlns:xlink="http://www.w3.org/1999/xlink" x="0px" y="0px"
	 viewBox="0 0 512.001 512.001" style="enable-background:new 0 0 512.001 512.001;" xml:space="preserve">
<g>
	<g>
		<path d="M496.131,217.627c-21.16-21.158-55.588-21.159-76.746,0l-17.158,17.158l-24.133-24.133l17.158-17.158
			c10.25-10.25,15.895-23.877,15.895-38.373c0-14.495-5.645-28.123-15.895-38.373c-10.25-10.25-23.877-15.895-38.373-15.895
			s-28.124,5.645-38.373,15.895l-17.158,17.158l-24.133-24.133l17.158-17.158c21.159-21.158,21.159-55.587,0-76.746
			c-21.158-21.158-55.587-21.158-76.746,0c-21.158,21.159-21.158,55.588,0,76.746l17.158,17.158l-24.133,24.133l-17.158-17.158
			c-10.25-10.25-23.877-15.895-38.373-15.895c-14.495,0-28.123,5.645-38.373,15.895c-10.25,10.25-15.895,23.877-15.895,38.373
			c0,14.495,5.645,28.124,15.895,38.373l17.158,17.158l-24.133,24.133l-17.158-17.158c-21.158-21.159-55.588-21.16-76.746,0
			c-21.159,21.158-21.159,55.587,0,76.746c21.158,21.157,55.587,21.158,76.746,0l17.158-17.158l24.133,24.133l-17.158,17.158
			c-10.25,10.25-15.895,23.877-15.895,38.373s5.645,28.123,15.895,38.373c10.25,10.25,23.877,15.895,38.373,15.895
			s28.124-5.645,38.373-15.895l17.158-17.158l24.133,24.133l-17.158,17.158c-21.159,21.158-21.159,55.587,0,76.746
			C228.207,506.71,242.103,512,256,512s27.794-5.291,38.374-15.87c21.158-21.159,21.158-55.588,0-76.746l-17.158-17.158
			l24.133-24.133l17.158,17.158c10.25,10.25,23.877,15.895,38.373,15.895c14.495,0,28.123-5.645,38.373-15.895
			c10.25-10.25,15.895-23.877,15.895-38.373s-5.645-28.124-15.895-38.373l-17.158-17.158l24.133-24.133l17.158,17.158
			c21.158,21.158,55.586,21.159,76.746,0C517.29,273.215,517.29,238.786,496.131,217.627z M71.4,273.158
			c-9.461,9.459-24.854,9.46-34.315,0c-9.46-9.461-9.46-24.854,0-34.315c4.73-4.73,10.943-7.096,17.158-7.096
			c6.213,0,12.427,2.366,17.158,7.096L88.558,256L71.4,273.158z M339.722,137.963c4.583-4.583,10.677-7.107,17.158-7.107
			s12.574,2.523,17.158,7.107c4.583,4.582,7.107,10.676,7.107,17.157s-2.523,12.575-7.107,17.158l-17.158,17.158l-34.315-34.315
			L339.722,137.963z M335.664,210.651l-24.133,24.133l-34.315-34.315l24.133-24.133L335.664,210.651z M290.316,256L256,290.315
			L221.685,256L256,221.684L290.316,256z M238.844,37.084c4.73-4.73,10.943-7.096,17.158-7.096c6.213,0,12.428,2.366,17.158,7.096
			c9.461,9.461,9.461,24.854,0,34.315l-17.158,17.158l-17.158-17.158C229.383,61.938,229.383,46.545,238.844,37.084z M256,130.988
			l24.133,24.133L256,179.255l-24.133-24.133L256,130.988z M210.653,176.336l24.133,24.133l-34.315,34.315l-24.133-24.133
			L210.653,176.336z M130.858,155.121c0-6.481,2.523-12.574,7.107-17.157c4.582-4.583,10.676-7.107,17.157-7.107
			c6.481,0,12.575,2.523,17.158,7.107l17.158,17.158l-34.315,34.315l-17.158-17.158
			C133.381,167.696,130.858,161.602,130.858,155.121z M130.989,256l24.133-24.133L179.256,256l-24.133,24.133L130.989,256z
			 M172.28,374.037c-4.583,4.583-10.677,7.107-17.158,7.107s-12.574-2.523-17.157-7.107c-4.583-4.582-7.107-10.676-7.107-17.157
			s2.523-12.575,7.107-17.158l17.158-17.158l34.315,34.315L172.28,374.037z M176.337,301.348l24.133-24.133l34.315,34.315
			l-24.133,24.133L176.337,301.348z M273.158,474.916c-9.461,9.461-24.855,9.46-34.315,0c-9.461-9.461-9.461-24.854,0-34.315
			L256,423.443l17.158,17.158C282.619,450.061,282.619,465.455,273.158,474.916z M256,381.012l-24.133-24.133L256,332.745
			l24.133,24.133L256,381.012z M301.349,335.664l-24.133-24.133l34.315-34.315l24.133,24.133L301.349,335.664z M381.144,356.879
			c0,6.481-2.523,12.574-7.107,17.158c-4.582,4.583-10.676,7.107-17.157,7.107s-12.575-2.523-17.158-7.107l-17.158-17.158
			l34.315-34.315l17.158,17.158C378.621,344.305,381.144,350.398,381.144,356.879z M356.879,280.133L332.746,256l24.133-24.133
			L381.013,256L356.879,280.133z M474.917,273.158c-9.461,9.46-24.855,9.46-34.315,0L423.444,256l17.158-17.158
			c9.46-9.46,24.853-9.461,34.315,0C484.377,248.303,484.377,263.698,474.917,273.158z"/>
	</g>
</g>
<g>
</g>
<g>
</g>
<g>
</g>
<g>
</g>
<g>
</g>
<g>
</g>
<g>
</g>
<g>
</g>
<g>
</g>
<g>
</g>
<g>
</g>
<g>
</g>
<g>
</g>
<g>
</g>
<g>
</g>
</svg>
