<svg height="512pt" viewBox="0 -54 512 512" width="512pt" xmlns="http://www.w3.org/2000/svg"><path d="m10 384c-2.628906 0-5.210938 1.070312-7.070312 2.929688-1.859376 1.859374-2.929688 4.441406-2.929688 7.070312s1.070312 5.210938 2.929688 7.070312c1.859374 1.859376 4.441406 2.929688 7.070312 2.929688s5.210938-1.070312 7.070312-2.929688c1.859376-1.859374 2.929688-4.441406 2.929688-7.070312s-1.070312-5.210938-2.929688-7.070312c-1.859374-1.859376-4.441406-2.929688-7.070312-2.929688zm0 0"/><path d="m502 192.0625h-49.535156c13.234375-44.253906 29.386718-92.550781 49.535156-92.550781 5.523438 0 10-4.476563 10-10 0-5.523438-4.476562-10-10-10-35.597656 0-52.949219 53.617187-70.40625 112.550781h-106.585938c-16.371093-59.140625-32.964843-112.550781-69.710937-112.550781-36.667969 0-54.015625 53.328125-71.152344 112.550781h-109.058593c-16.257813-53.558594-30.609376-100.53125-55.085938-110.570312v-71.492188c0-5.523438-4.476562-10-10-10s-10 4.476562-10 10v345.0625c0 5.523438 4.476562 10 10 10s10-4.476562 10-10v-143h40.269531c18.25 59.574219 36.738281 112.550781 71.117188 112.550781 34.660156 0 50.996093-54.113281 67.8125-112.550781h110.574219c16.136718 58.558594 31.960937 112.550781 67.203124 112.550781 35.09375 0 52.195313-53.8125 69.566407-112.550781h55.457031c5.523438 0 10-4.476562 10-10s-4.476562-10-10-10zm-246.703125-92.550781c21.101563 0 36.480469 48.050781 48.945313 92.550781h-99.265626c13.082032-44.65625 29.132813-92.550781 50.320313-92.550781zm-235.296875 7.039062c3.214844 4.003907 7.046875 10.226563 11.40625 19.871094 7.980469 17.652344 15.230469 40.839844 22.773438 65.640625h-34.179688zm111.386719 198.0625c-19.226563 0-36.5625-48.785156-50.179688-92.550781h97.175781c-12.589843 43.488281-28.007812 92.550781-46.996093 92.550781zm245.589843 0c-19.453124 0-34.34375-48.921875-46.453124-92.550781h95.15625c-13.113282 43.960938-29.105469 92.550781-48.703126 92.550781zm0 0"/></svg>