<?xml version="1.0" encoding="iso-8859-1"?>
<!-- Generator: Adobe Illustrator 16.0.0, SVG Export Plug-In . SVG Version: 6.00 Build 0)  -->
<!DOCTYPE svg PUBLIC "-//W3C//DTD SVG 1.1//EN" "http://www.w3.org/Graphics/SVG/1.1/DTD/svg11.dtd">
<svg version="1.1" id="Capa_1" xmlns="http://www.w3.org/2000/svg" xmlns:xlink="http://www.w3.org/1999/xlink" x="0px" y="0px"
	 width="79.536px" height="79.536px" viewBox="0 0 79.536 79.536" style="enable-background:new 0 0 79.536 79.536;"
	 xml:space="preserve">
<g>
	<path style="fill:#010002;" d="M19.545,25.655l-7.104-4.969c5.631-8.055,14.507-13.129,24.172-14.051V0.008L55.323,10.81
		L36.607,21.611v-6.289C29.774,16.208,23.548,19.928,19.545,25.655z M15.31,42.935h6.299L10.802,24.218L0,42.935h6.628
		c0.922,9.662,5.997,18.537,14.051,24.177l4.963-7.11C19.915,55.993,16.2,49.765,15.31,42.935z M42.938,64.217v-6.292L24.226,68.727
		l18.711,10.802V72.9c9.651-0.927,18.517-5.996,24.15-14.038l-7.094-4.971C55.986,59.613,49.752,63.326,42.938,64.217z
		 M72.908,36.604c-0.933-9.655-6.007-18.52-14.054-24.169l-4.971,7.102c5.727,4.013,9.445,10.245,10.336,17.067h-6.292L68.729,55.32
		l10.807-18.716H72.908z"/>
</g>
<g>
</g>
<g>
</g>
<g>
</g>
<g>
</g>
<g>
</g>
<g>
</g>
<g>
</g>
<g>
</g>
<g>
</g>
<g>
</g>
<g>
</g>
<g>
</g>
<g>
</g>
<g>
</g>
<g>
</g>
</svg>
