<?xml version="1.0" encoding="iso-8859-1"?>
<!-- Generator: Adobe Illustrator 19.0.0, SVG Export Plug-In . SVG Version: 6.00 Build 0)  -->
<svg version="1.1" id="Capa_1" xmlns="http://www.w3.org/2000/svg" xmlns:xlink="http://www.w3.org/1999/xlink" x="0px" y="0px"
	 viewBox="0 0 512 512" style="enable-background:new 0 0 512 512;" xml:space="preserve">
<g>
	<g>
		<path d="M486.658,266.256c-4.056-4.057-8.492-7.468-13.118-10.34c4.624-2.871,9.061-6.273,13.118-10.329
			c28.17-28.17,25.338-74.542,25.204-76.502l-0.896-13.052l-13.052-0.896c-1.965-0.133-48.333-2.968-76.503,25.203
			c-18.576,18.576-23.67,45.063-24.947,61.515h-18.211v-54.533h-30.018v54.533h-24.125v-87.053h-30.018v87.053h-24.126V138.544
			h-30.018v103.312h-24.126V135.959h-30.018v105.897h-24.014V136.042l-18.445,4.338C47.765,162.86,5.157,245.666,3.391,249.179
			L0,255.922l3.391,6.743c1.768,3.514,44.375,86.319,139.954,108.798l18.445,4.338V271.874h24.015v104.167h30.018V271.874h24.126
			V372.81h30.018V271.874h24.126v87.053h30.018v-87.053h24.125v54.033h30.018v-54.033h18.371
			c1.517,16.535,6.905,41.746,24.787,59.628c23.043,23.044,58.263,25.341,71.394,25.341c2.922,0,4.752-0.114,5.109-0.138
			l13.052-0.896l0.896-13.052C511.997,340.798,514.829,294.427,486.658,266.256z M131.772,336.807
			c-26.662-9.505-50.836-25.565-72.067-47.912c-12.596-13.257-21.079-25.672-25.599-32.982
			c10.42-16.868,41.976-60.901,97.666-80.857V336.807z M442.637,201.567c10.747-10.747,26.955-14.572,38.661-15.888
			c-1.329,11.727-5.158,27.975-15.867,38.682c-10.747,10.747-26.955,14.572-38.661,15.888
			C428.1,228.523,431.93,212.275,442.637,201.567z M442.637,310.276c-10.753-10.754-14.576-26.976-15.89-38.684
			c11.715,1.315,27.932,5.137,38.684,15.889c10.747,10.747,14.572,26.955,15.888,38.661
			C469.593,324.813,453.345,320.984,442.637,310.276z"/>
	</g>
</g>
<g>
</g>
<g>
</g>
<g>
</g>
<g>
</g>
<g>
</g>
<g>
</g>
<g>
</g>
<g>
</g>
<g>
</g>
<g>
</g>
<g>
</g>
<g>
</g>
<g>
</g>
<g>
</g>
<g>
</g>
</svg>
