<svg height="512pt" viewBox="0 0 512.00025 512" width="512pt" xmlns="http://www.w3.org/2000/svg"><path d="m509.804688 2.195312c-2.929688-2.925781-7.679688-2.925781-10.609376 0l-25.621093 25.625c-29.234375-24.875-73.316407-23.542968-100.933594 4.035157-14.074219 14.050781-21.824219 32.734375-21.824219 52.609375 0 8.402344 1.398438 16.585937 4.058594 24.300781-26.089844-8.953125-56.199219-3.058594-76.984375 17.695313-14.070313 14.054687-21.820313 32.738281-21.820313 52.613281 0 8.402343 1.398438 16.582031 4.058594 24.296875-26.089844-8.949219-56.199218-3.054688-76.984375 17.699218-14.074219 14.054688-21.824219 32.738282-21.824219 52.613282 0 8.398437 1.402344 16.582031 4.0625 24.296875-26.089843-8.949219-56.199218-3.054688-76.984374 17.699219-8.769532 8.757812-15.253907 19.625-18.753907 31.433593-1.179687 3.972657 1.085938 8.144531 5.058594 9.320313 3.972656 1.179687 8.144531-1.085938 9.320313-5.058594 2.792968-9.414062 7.96875-18.089844 14.972656-25.082031 23.203125-23.167969 60.949218-23.164063 84.148437 0 11.234375 11.21875 17.421875 26.132812 17.421875 41.996093 0 15.867188-6.1875 30.78125-17.421875 42-23.199219 23.164063-60.949219 23.164063-84.148437 0-8.429688-8.417968-14.078125-19.015624-16.332032-30.648437-.789062-4.066406-4.722656-6.722656-8.789062-5.9375-4.066406.789063-6.726562 4.726563-5.9375 8.792969 2.472656 12.75 8.191406 24.507812 16.648438 34.308594l-82.390626 82.390624c-2.925781 2.929688-2.925781 7.675782 0 10.605469 1.464844 1.46875 3.386719 2.199219 5.304688 2.199219s3.839844-.730469 5.304688-2.195312l82.683593-82.6875c13.371094 10.34375 29.46875 15.539062 45.582031 15.539062 19.078126 0 38.152344-7.25 52.671876-21.753906 14.074218-14.050782 21.824218-32.734375 21.824218-52.609375 0-8.402344-1.398437-16.582031-4.0625-24.300781 7.863282 2.699218 16.085938 4.054687 24.3125 4.054687 19.078125 0 38.152344-7.25 52.675782-21.753906 2.929687-2.925781 2.933593-7.671875.007812-10.605469-2.929688-2.929688-7.675781-2.933594-10.605469-.003906-23.203125 23.164062-60.949219 23.164062-84.148437-.003906-11.238282-11.21875-17.421875-26.132813-17.421875-41.996094 0-15.863282 6.183593-30.777344 17.421875-41.996094 23.199218-23.167969 60.945312-23.167969 84.148437 0 16.378907 16.355469 21.769531 40.953125 13.722657 62.65625-1.4375 3.882812.542968 8.199219 4.425781 9.636719 3.882812 1.445312 8.199219-.539063 9.640625-4.425781 6.089844-16.433594 6.023437-34.191407.492187-50.195313 7.882813 2.714844 16.136719 4.078125 24.390625 4.078125 19.070313 0 38.152344-7.25 52.671875-21.75 14.074219-14.050781 21.824219-32.738281 21.824219-52.613281 0-8.398438-1.402344-16.582031-4.0625-24.296875 7.859375 2.695312 16.085938 4.050781 24.3125 4.050781 19.074219 0 38.148438-7.25 52.671875-21.75 14.074219-14.050781 21.824219-32.738281 21.824219-52.613281 0-16.832032-5.578125-32.800782-15.832032-45.835938l25.828126-25.824218c2.929687-2.929688 2.929687-7.679688 0-10.609376zm-137.164063 218.875c-23.203125 23.167969-60.949219 23.167969-84.148437 0-11.238282-11.214843-17.421876-26.132812-17.421876-41.996093s6.183594-30.777344 17.421876-41.996094c11.597656-11.585937 26.835937-17.375 42.074218-17.375 15.234375 0 30.472656 5.789063 42.074219 17.375 11.234375 11.21875 17.421875 26.132813 17.421875 41.996094s-6.1875 30.78125-17.421875 41.996093zm94.746094-94.609374c-23.199219 23.167968-60.949219 23.167968-84.148438 0-11.238281-11.21875-17.421875-26.132813-17.421875-41.996094 0-15.863282 6.183594-30.777344 17.421875-41.996094 11.597657-11.582031 26.835938-17.375 42.074219-17.375 15.234375 0 30.472656 5.792969 42.074219 17.375 11.234375 11.21875 17.421875 26.132812 17.421875 41.996094 0 15.863281-6.1875 30.78125-17.421875 41.996094zm0 0"/><path d="m173.160156 357.914062c3.507813-3.503906 3.507813-9.183593 0-12.6875-3.511718-3.503906-9.199218-3.503906-12.707031 0-3.507813 3.503907-3.507813 9.183594 0 12.6875 3.507813 3.503907 9.195313 3.503907 12.707031 0zm0 0"/><path d="m199.296875 266.699219c-3.507813 3.503906-3.507813 9.1875 0 12.6875 3.511719 3.503906 9.199219 3.503906 12.707031 0 3.511719-3.5 3.511719-9.183594 0-12.6875-3.507812-3.5-9.195312-3.5-12.707031 0zm0 0"/><path d="m217.300781 239.265625c-3.507812 3.5-3.507812 9.183594 0 12.683594 3.507813 3.503906 9.195313 3.503906 12.707031 0 3.507813-3.5 3.507813-9.183594 0-12.683594-3.511718-3.503906-9.199218-3.503906-12.707031 0zm0 0"/><path d="m306.363281 195.742188c-3.507812 3.503906-3.507812 9.1875 0 12.6875 3.507813 3.503906 9.195313 3.503906 12.707031 0 3.507813-3.503907 3.507813-9.183594 0-12.6875-3.507812-3.5-9.199218-3.5-12.707031 0zm0 0"/><path d="m340.472656 199.527344c-3.507812 3.503906-3.507812 9.183594 0 12.6875 3.507813 3.503906 9.195313 3.503906 12.707032 0 3.507812-3.503906 3.507812-9.183594 0-12.6875-3.511719-3.503906-9.199219-3.503906-12.707032 0zm0 0"/><path d="m400.164062 54.777344c-3.511718 3.503906-3.511718 9.183594 0 12.6875 3.507813 3.503906 9.195313 3.503906 12.703126 0 3.511718-3.503906 3.511718-9.183594 0-12.6875-3.507813-3.503906-9.195313-3.503906-12.703126 0zm0 0"/><path d="m434.273438 50.992188c-3.511719 3.503906-3.511719 9.183593 0 12.6875 3.507812 3.503906 9.195312 3.503906 12.703124 0 3.511719-3.503907 3.511719-9.183594 0-12.6875-3.507812-3.503907-9.195312-3.503907-12.703124 0zm0 0"/><path d="m157.609375 392.917969c3.507813 3.503906 9.199219 3.503906 12.707031 0 3.507813-3.503907 3.507813-9.183594 0-12.6875-3.507812-3.5-9.199218-3.5-12.707031 0-3.507813 3.503906-3.507813 9.183593 0 12.6875zm0 0"/></svg>