<?xml version="1.0" encoding="iso-8859-1"?>
<!-- Generator: Adobe Illustrator 19.0.0, SVG Export Plug-In . SVG Version: 6.00 Build 0)  -->
<svg version="1.1" id="Capa_1" xmlns="http://www.w3.org/2000/svg" xmlns:xlink="http://www.w3.org/1999/xlink" x="0px" y="0px"
	 viewBox="0 0 294.843 294.843" style="enable-background:new 0 0 294.843 294.843;" xml:space="preserve">
<g>
	<path d="M278.527,79.946c-10.324-20.023-25.38-37.704-43.538-51.132c-2.665-1.97-6.421-1.407-8.392,1.257s-1.407,6.421,1.257,8.392
		c16.687,12.34,30.521,28.586,40.008,46.983c9.94,19.277,14.98,40.128,14.98,61.976c0,74.671-60.75,135.421-135.421,135.421
		S12,222.093,12,147.421S72.75,12,147.421,12c3.313,0,6-2.687,6-6s-2.687-6-6-6C66.133,0,0,66.133,0,147.421
		s66.133,147.421,147.421,147.421s147.421-66.133,147.421-147.421C294.842,123.977,289.201,100.645,278.527,79.946z"/>
</g>
<g>
</g>
<g>
</g>
<g>
</g>
<g>
</g>
<g>
</g>
<g>
</g>
<g>
</g>
<g>
</g>
<g>
</g>
<g>
</g>
<g>
</g>
<g>
</g>
<g>
</g>
<g>
</g>
<g>
</g>
</svg>
