<?xml version="1.0" encoding="iso-8859-1"?>
<!-- Generator: Adobe Illustrator 16.0.0, SVG Export Plug-In . SVG Version: 6.00 Build 0)  -->
<!DOCTYPE svg PUBLIC "-//W3C//DTD SVG 1.1//EN" "http://www.w3.org/Graphics/SVG/1.1/DTD/svg11.dtd">
<svg version="1.1" id="Capa_1" xmlns="http://www.w3.org/2000/svg" xmlns:xlink="http://www.w3.org/1999/xlink" x="0px" y="0px"
	 width="783.273px" height="783.273px" viewBox="0 0 783.273 783.273" style="enable-background:new 0 0 783.273 783.273;"
	 xml:space="preserve">
<g>
	<g id="Shape_45_copy">
		<g>
			<path d="M334.876,597.34l11.852-16.891l0,0l0,0l11.852-16.91l-117.733-82.59l229.666-199.045l-27.049-31.199l-4.006,3.469
				l-145.629-92.378L444.495,31.219L417.467,0L230.233,162.271l27.049,31.199l3.985-3.469l145.629,92.378L178.221,480.576
				l27.049,31.221l3.427-2.975l87.113,61.119L85.637,752.074l27.048,31.199l217.979-188.906L334.876,597.34z M467.972,480.949
				l229.665-199.045l-27.049-31.199l-4.006,3.469l-145.628-92.378L671.62,31.219L644.593,0L457.358,162.271l27.049,31.199
				l3.985-3.448l145.628,92.378L405.347,480.598l27.049,31.219l3.428-2.973l87.112,61.117L312.762,752.074l27.049,31.199
				l217.978-188.906l4.233,2.953l11.852-16.891l0,0l0,0l11.852-16.91L467.972,480.949z"/>
		</g>
	</g>
</g>
<g>
</g>
<g>
</g>
<g>
</g>
<g>
</g>
<g>
</g>
<g>
</g>
<g>
</g>
<g>
</g>
<g>
</g>
<g>
</g>
<g>
</g>
<g>
</g>
<g>
</g>
<g>
</g>
<g>
</g>
</svg>
