<?xml version="1.0" encoding="iso-8859-1"?>
<!-- Generator: Adobe Illustrator 16.0.0, SVG Export Plug-In . SVG Version: 6.00 Build 0)  -->
<!DOCTYPE svg PUBLIC "-//W3C//DTD SVG 1.1//EN" "http://www.w3.org/Graphics/SVG/1.1/DTD/svg11.dtd">
<svg version="1.1" id="Capa_1" xmlns="http://www.w3.org/2000/svg" xmlns:xlink="http://www.w3.org/1999/xlink" x="0px" y="0px"
	 width="612px" height="612px" viewBox="0 0 612 612" style="enable-background:new 0 0 612 612;" xml:space="preserve">
<g>
	<g>
		<path d="M595.219,84.308L407.011,26.746c-4.521-1.396-9.371-1.396-13.91,0L212.808,81.903L32.322,11.768
			c-7.314-2.832-15.54-1.901-21.981,2.522C3.861,18.713,0,26.028,0,33.866v528.692c0,6.984,3.065,13.601,8.42,18.121
			c5.374,4.462,12.397,6.421,19.246,5.276l183.241-30.964l183.396,46.136c1.901,0.485,3.861,0.718,5.801,0.718
			c1.94,0,3.9-0.232,5.801-0.718l188.169-47.338C604.569,551.151,612,541.644,612,530.78V106.988
			C612,96.57,605.171,87.334,595.219,84.308z M235.624,174.677c0.116,0.039,0.155,0.059,0.233,0.136
			c2.27,2.057,5.16,3.085,7.993,3.085c3.22,0,6.441-1.319,8.789-3.899c4.404-4.851,4.016-12.358-0.834-16.743
			c-4.967-4.521-10.651-7.256-16.18-10.321v-22.408l137.746-42.139v250.174c-1.668,0.291-3.414,0.078-4.889,1.126
			c-11.562,8.167-21.555,12.319-29.741,12.319c-4.365,0-17.694,0-29.257-29.432c-2.348-6.111-9.351-9.099-15.346-6.713
			c-6.092,2.387-9.099,9.294-6.712,15.366c14.434,36.784,35.853,44.486,51.296,44.486c10.806,0,22.35-4.56,34.63-11.815v189.042
			L235.604,512.31V174.677H235.624z M47.474,468.794c9.06-3.027,19.362-8.886,29.062-21.283c4.094-5.141,3.182-12.61-1.959-16.665
			c-5.16-3.997-12.591-3.162-16.626,2.018c-3.531,4.501-7.081,7.644-10.457,9.895V68.516l140.695,54.671v14.144
			c-14.337,1.649-28.539,5.937-41.479,15.288c-5.335,3.822-6.46,11.252-2.678,16.568c3.9,5.258,11.292,6.519,16.588,2.658
			c8.769-6.325,18.159-9.391,27.549-10.942v349.836L47.474,534.524V468.794z M564.526,512.31l-143.683,36.144V318.185
			c17.654-17.422,35.619-14.453,51.412,7.354c3.821,5.315,11.252,6.44,16.529,2.677c5.335-3.86,6.519-11.252,2.658-16.568
			c-19.595-27.142-46.349-35.057-70.6-22.679V80.564l143.683,43.981V512.31L564.526,512.31z"/>
		<path d="M291.576,299.425c6.441-1.319,10.535-7.605,9.215-14.008c-1.591-7.741-2.949-16.238-4.094-25.609
			c-3.531-28.229-10.806-52.576-21.632-72.346c-3.143-5.781-10.418-7.857-16.103-4.695c-5.724,3.144-7.799,10.36-4.656,16.104
			c9.351,17.15,15.714,38.607,18.877,63.867c1.203,10.05,2.697,19.207,4.404,27.511c1.203,5.606,6.092,9.448,11.602,9.448
			C289.984,299.677,290.819,299.599,291.576,299.425z"/>
		<path d="M120.014,179.605c-18.373,25.26-30.129,59.037-33.796,97.78c-0.601,6.538,4.171,12.339,10.69,12.96
			c0.388,0,0.757,0.039,1.145,0.039c6.053,0,11.175-4.579,11.776-10.729c3.298-34.495,13.484-64.256,29.373-86.062
			c3.841-5.297,2.697-12.708-2.6-16.568C131.344,173.242,123.913,174.328,120.014,179.605z"/>
		<path d="M96.849,301.074c-0.039,0-0.117,0-0.117,0c-6.519,0-11.776,5.219-11.893,11.718c-0.485,38.782-4.85,70.153-12.921,93.183
			c-2.153,6.188,1.067,12.94,7.236,15.133c1.281,0.466,2.658,0.679,3.938,0.679c4.889,0,9.429-3.065,11.175-7.935
			c8.983-25.474,13.794-59.367,14.279-100.769C108.684,306.545,103.445,301.171,96.849,301.074z"/>
		<path d="M486.807,354.678c4.656,13.872,7.12,28.694,7.12,42.876c0,6.558,5.315,11.873,11.854,11.873
			c6.519,0,11.854-5.315,11.854-11.873c0-16.724-2.891-34.165-8.342-50.442c-2.076-6.208-8.556-9.623-15.036-7.45
			C488.048,341.757,484.711,348.47,486.807,354.678z"/>
	</g>
</g>
<g>
</g>
<g>
</g>
<g>
</g>
<g>
</g>
<g>
</g>
<g>
</g>
<g>
</g>
<g>
</g>
<g>
</g>
<g>
</g>
<g>
</g>
<g>
</g>
<g>
</g>
<g>
</g>
<g>
</g>
</svg>
