<?xml version="1.0" encoding="iso-8859-1"?>
<!-- Generator: Adobe Illustrator 16.0.0, SVG Export Plug-In . SVG Version: 6.00 Build 0)  -->
<!DOCTYPE svg PUBLIC "-//W3C//DTD SVG 1.1//EN" "http://www.w3.org/Graphics/SVG/1.1/DTD/svg11.dtd">
<svg version="1.1" id="Capa_1" xmlns="http://www.w3.org/2000/svg" xmlns:xlink="http://www.w3.org/1999/xlink" x="0px" y="0px"
	 width="303.711px" height="303.711px" viewBox="0 0 303.711 303.711" style="enable-background:new 0 0 303.711 303.711;"
	 xml:space="preserve">
<g>
	<path d="M302.898,19.869c1.859-5.419,0.469-11.424-3.582-15.475s-10.059-5.44-15.475-3.58
		c-52.937,18.168-92.408,25.92-131.987,25.92c-39.578,0-79.051-7.752-131.986-25.92C14.455-1.045,8.445,0.343,4.394,4.394
		C0.343,8.445-1.047,14.45,0.812,19.869c34.701,101.148,34.701,162.823,0,263.973c-1.859,5.419-0.469,11.424,3.582,15.475
		c4.051,4.05,10.057,5.439,15.475,3.58c52.936-18.168,92.408-25.92,131.986-25.92c39.579,0,79.051,7.752,131.987,25.92
		c1.594,0.547,3.235,0.813,4.866,0.813c3.912,0,7.748-1.533,10.607-4.394c4.051-4.051,5.441-10.056,3.582-15.475
		C268.197,182.692,268.197,121.017,302.898,19.869z"/>
</g>
<g>
</g>
<g>
</g>
<g>
</g>
<g>
</g>
<g>
</g>
<g>
</g>
<g>
</g>
<g>
</g>
<g>
</g>
<g>
</g>
<g>
</g>
<g>
</g>
<g>
</g>
<g>
</g>
<g>
</g>
</svg>
