<svg height="448pt" viewBox="-89 0 448 448.00032" width="448pt" xmlns="http://www.w3.org/2000/svg"><path d="m1.128906 104h266.960938c-.746094-5.40625-1.867188-10.75-3.363282-16h-260.238281c-1.496093 5.246094-2.617187 10.59375-3.359375 16zm0 0"/><path d="m120.128906 0c-16.777344-.03125-33.371094 3.453125-48.722656 10.222656 6.160156 1.25 12.800781 2.335938 19.800781 3.203125 28.847657 3.429688 58 3.429688 86.847657 0 7.035156-.859375 13.648437-1.945312 19.816406-3.203125-15.367188-6.777344-31.984375-10.2617185-48.78125-10.222656zm0 0"/><path d="m10.214844 72h44.9375c3.917968-13 9.375-25.484375 16.253906-37.191406 1.601562-2.625 3.136719-5.023438 4.722656-7.425782-8.378906-1.375-16.664062-3.28125-24.800781-5.710937-18.023437 12.730469-32.234375 30.128906-41.113281 50.328125zm0 0"/><path d="m190.609375 384h-112v40c0 13.253906 10.742187 24 24 24h64c13.253906 0 24-10.746094 24-24zm0 0"/><path d="m214.0625 72h44.9375c-8.867188-20.195312-23.070312-37.59375-41.078125-50.328125-8.136719 2.429687-16.421875 4.339844-24.800781 5.710937 1.597656 2.402344 3.152344 4.800782 4.703125 7.394532 6.875 11.71875 12.324219 24.214844 16.238281 37.222656zm0 0"/><path d="m175.214844 29.734375c-10.550782 1.152344-21.460938 1.800781-32.605469 2.035156v40.230469h54.75c-3.425781-10.113281-7.886719-19.847656-13.3125-29.046875-2.894531-4.832031-5.824219-9.136719-8.832031-13.21875zm0 0"/><path d="m71.855469 72h54.753906v-40.230469c-11.136719-.234375-22.050781-.882812-32.609375-2.035156-3.007812 4.089844-5.945312 8.386719-8.847656 13.25-5.421875 9.1875-9.875 18.910156-13.296875 29.015625zm0 0"/><path d="m94.609375 288h32v80h-32zm0 0"/><path d="m185.9375 193.792969c12.613281-22.550781 19.25-47.953125 19.277344-73.792969h-62.605469v151.746094zm0 0"/><path d="m15.273438 178.265625 52.046874 93.734375h41.128907l-39.152344-70.398438c-13.941406-24.941406-21.269531-53.03125-21.296875-81.601562h-48c-.00390625 20.410156 5.257812 40.480469 15.273438 58.265625zm0 0"/><path d="m253.9375 178.28125c10.011719-17.792969 15.265625-37.867188 15.246094-58.28125h-48c-.027344 28.570312-7.355469 56.660156-21.296875 81.601562l-39.117188 70.398438h41.125zm0 0"/><path d="m126.609375 271.746094v-151.746094h-62.609375c.03125 25.839844 6.667969 51.242188 19.28125 73.792969zm0 0"/><path d="m142.609375 288h32v80h-32zm0 0"/></svg>