<svg viewBox="0 0 512 512" xmlns="http://www.w3.org/2000/svg">
<path d="m461.3125 309.109375v-171.777344c0-75.726562-61.609375-137.332031-137.332031-137.332031-75.726563 0-137.335938 61.605469-137.335938 137.332031v237.335938c0 26.097656-21.234375 47.332031-47.332031 47.332031h-1.980469c-26.097656 0-47.332031-21.234375-47.332031-47.332031v-374.667969h-90v374.667969c0 75.726562 61.609375 137.332031 137.335938 137.332031h1.976562c75.726562 0 137.332031-61.605469 137.332031-137.332031v-237.335938c0-26.097656 21.234375-47.332031 47.335938-47.332031 26.097656 0 47.332031 21.234375 47.332031 47.332031v171.777344zm0 0"/>
</svg>