<svg height="682.66669pt" viewBox="-21 -21 682.66669 682.66669" width="682.66669pt" xmlns="http://www.w3.org/2000/svg"><path d="m565 490c-41.359375 0-75 33.640625-75 75s33.640625 75 75 75 75-33.640625 75-75-33.640625-75-75-75zm0 100c-13.785156 0-25-11.214844-25-25s11.214844-25 25-25 25 11.214844 25 25-11.214844 25-25 25zm22.5-243.75c0 13.808594-11.191406 25-25 25s-25-11.191406-25-25 11.191406-25 25-25 25 11.191406 25 25zm0 87.5c0 13.808594-11.191406 25-25 25s-25-11.191406-25-25 11.191406-25 25-25 25 11.191406 25 25zm0-175c0 13.808594-11.191406 25-25 25s-25-11.191406-25-25 11.191406-25 25-25 25 11.191406 25 25zm-25-112.5c13.808594 0 25 11.191406 25 25s-11.191406 25-25 25-25-11.191406-25-25 11.191406-25 25-25zm-37.5-62.5c0-13.808594 11.191406-25 25-25s25 11.191406 25 25-11.191406 25-25 25-25-11.191406-25-25zm-206.25 262.5c0 13.808594-11.191406 25-25 25s-25-11.191406-25-25 11.191406-25 25-25 25 11.191406 25 25zm0 87.5c0 13.808594-11.191406 25-25 25s-25-11.191406-25-25 11.191406-25 25-25 25 11.191406 25 25zm-13.75 87.5c0 13.808594-11.191406 25-25 25s-25-11.191406-25-25 11.191406-25 25-25 25 11.191406 25 25zm13.75-262.5c0 13.808594-11.191406 25-25 25s-25-11.191406-25-25 11.191406-25 25-25 25 11.191406 25 25zm0-87.5c0 13.808594-11.191406 25-25 25s-25-11.191406-25-25 11.191406-25 25-25 25 11.191406 25 25zm12.5-87.5c0 13.808594-11.191406 25-25 25s-25-11.191406-25-25 11.191406-25 25-25 25 11.191406 25 25zm146.25-33.75c-13.808594 0-25-11.191406-25-25s11.191406-25 25-25 25 11.191406 25 25-11.191406 25-25 25zm-72.5-25c0 13.808594-11.191406 25-25 25s-25-11.191406-25-25 11.191406-25 25-25 25 11.191406 25 25zm-405 321.25c0-13.808594 11.191406-25 25-25s25 11.191406 25 25-11.191406 25-25 25-25-11.191406-25-25zm25 112.5c-13.808594 0-25-11.191406-25-25s11.191406-25 25-25 25 11.191406 25 25-11.191406 25-25 25zm37.5 62.5c0 13.808594-11.191406 25-25 25s-25-11.191406-25-25 11.191406-25 25-25 25 11.191406 25 25zm71.25 58.75c0 13.808594-11.191406 25-25 25s-25-11.191406-25-25 11.191406-25 25-25 25 11.191406 25 25zm100 0c0 13.808594-11.191406 25-25 25s-25-11.191406-25-25 11.191406-25 25-25 25 11.191406 25 25zm-183.75-416.25h164.539062l-63.152343-82.046875 63.414062-81.703125h-214.800781v278.75h50zm0-113.75h62.699219l-24.503907 31.578125 24.765626 32.171875h-62.960938zm0 0"/></svg>