<svg height="512pt" viewBox="0 0 512.00401 512" width="512pt" xmlns="http://www.w3.org/2000/svg"><path d="m41.105469 296.6875 60-60 21.210937 21.210938-60 60zm0 0"/><path d="m13.417969 245.714844-13.417969-26.835938 60-30 13.414062 26.835938zm0 0"/><path d="m140.128906 359.011719-26.832031-13.417969 30-59.996094 26.832031 13.414063zm0 0"/><path d="m450.003906 308.644531c-9.203125 4.039063-19.324218 6.359375-30 6.359375-10.675781 0-20.796875-2.320312-30-6.359375v143.359375h-60v-30h-30v30h-30l-30 60h272v-60h-62zm0 0"/><path d="m465.003906 240.003906c0 24.851563-20.148437 45-45 45-24.851562 0-45-20.148437-45-45 0-24.855468 20.148438-45 45-45 24.851563 0 45 20.144532 45 45zm0 0"/><path d="m382.734375 175.3125-26.0625-21.890625-42.425781 42.421875 32.511718 28.335938c4.527344-20.953126 17.941407-38.433594 35.976563-48.867188zm0 0"/><path d="m361.597656 106.070312-106.070312-106.06640575-84.839844 84.85546875 106.050781 106.054687zm0 0"/><path d="m264.746094 221.34375-124.488282-124.488281-106.066406 21.210937 209.339844 209.34375zm0 0"/></svg>