<?xml version="1.0" encoding="iso-8859-1"?>
<!-- Generator: Adobe Illustrator 18.0.0, SVG Export Plug-In . SVG Version: 6.00 Build 0)  -->
<!DOCTYPE svg PUBLIC "-//W3C//DTD SVG 1.1//EN" "http://www.w3.org/Graphics/SVG/1.1/DTD/svg11.dtd">
<svg version="1.1" id="Capa_1" xmlns="http://www.w3.org/2000/svg" xmlns:xlink="http://www.w3.org/1999/xlink" x="0px" y="0px"
	 viewBox="0 0 491.702 491.702" style="enable-background:new 0 0 491.702 491.702;" xml:space="preserve">
<path id="goblet" style="fill:#000100;" d="M316.564,221.764c15.086-66.416,44.612-150.563,72.149-202.276
	c2.185-4.112,2.059-9.06-0.34-13.059C385.982,2.442,381.675,0,377.035,0c-36.614,0-119.072,0-262.34,0
	c-4.659,0-8.966,2.442-11.358,6.428c-2.396,3.986-2.541,8.933-0.355,13.045c27.955,52.53,57.977,138.51,72.856,205.405
	c6.009,27.053,27.292,47.394,53.542,53.049v151.814c-51.791,4.239-91.487,27.243-91.487,38.826
	c0,12.775,48.323,23.135,107.954,23.135c59.618,0,107.959-10.36,107.959-23.135c0-11.583-39.729-34.601-91.523-38.826V277.156
	C288.883,270.439,310.254,249.539,316.564,221.764z"/>
<g>
</g>
<g>
</g>
<g>
</g>
<g>
</g>
<g>
</g>
<g>
</g>
<g>
</g>
<g>
</g>
<g>
</g>
<g>
</g>
<g>
</g>
<g>
</g>
<g>
</g>
<g>
</g>
<g>
</g>
</svg>
