<?xml version="1.0" encoding="iso-8859-1"?>
<!-- Generator: Adobe Illustrator 16.0.0, SVG Export Plug-In . SVG Version: 6.00 Build 0)  -->
<!DOCTYPE svg PUBLIC "-//W3C//DTD SVG 1.1//EN" "http://www.w3.org/Graphics/SVG/1.1/DTD/svg11.dtd">
<svg version="1.1" id="Capa_1" xmlns="http://www.w3.org/2000/svg" xmlns:xlink="http://www.w3.org/1999/xlink" x="0px" y="0px"
	 width="46.945px" height="46.945px" viewBox="0 0 46.945 46.945" style="enable-background:new 0 0 46.945 46.945;"
	 xml:space="preserve">
<g>
	<g>
		<path d="M45.835,21.944c-1.475,0.975-8.022,4.696-22.041,4.696c-13.955,0-21.055-3.737-22.684-4.723
			c-0.002,0.152-0.012,0.303-0.012,0.455c0,0.635,0.033,1.26,0.086,1.881c2.971,1.541,10.145,4.387,22.609,4.387
			c12.26,0,19.081-2.76,21.963-4.324c0.055-0.641,0.09-1.288,0.09-1.942C45.848,22.229,45.84,22.086,45.835,21.944z"/>
		<path d="M2.02,28.328l-0.082,0.096l0.002,0.002c0.279,0.996,0.625,1.963,1.033,2.896c3.176,1.752,9.836,4.43,20.875,4.43
			c10.319,0,16.666-2.338,19.967-4.078c0.449-0.979,0.83-1.996,1.138-3.045c-1.521,1.109-7.924,5.123-21.104,5.123
			C8.616,33.752,2.083,28.383,2.02,28.328z"/>
		<path d="M45.133,16.76c-0.177-0.68-0.386-1.348-0.621-2.002c-1.496,1.137-7.022,4.467-20.343,4.467
			c-13.318,0-19.87-3.396-21.707-4.545c-0.236,0.643-0.441,1.301-0.617,1.971c2.566,1.502,9.393,4.574,22.323,4.574
			C36.663,21.225,42.745,18.338,45.133,16.76z"/>
		<path d="M5.311,35.416c1.223,1.697,2.676,3.217,4.314,4.512c3.246,1.207,7.941,2.303,14.359,2.303
			c5.725,0,9.938-0.911,12.959-2.006c1.842-1.393,3.459-3.065,4.795-4.953c-0.676,0.65-5.623,4.959-17.754,4.959
			C11.807,40.23,6.12,36.062,5.311,35.416z"/>
		<path d="M43.264,36.577c0.017-0.017,0.041-0.043,0.047-0.049l-0.008-0.009C43.288,36.539,43.278,36.559,43.264,36.577z"/>
		<path d="M24.094,2.309c3.002-0.109,5.037-0.855,6.012-1.305c-1.358-0.422-2.774-0.717-4.229-0.873C25.087,0.047,24.286,0,23.474,0
			c-0.789,0-1.566,0.043-2.336,0.123c-1.496,0.156-2.949,0.459-4.344,0.896C17.729,1.4,20.319,2.318,23.5,2.318
			C23.696,2.319,23.895,2.317,24.094,2.309z"/>
		<path d="M24.161,44.936c-1.034,0.033-2.008-0.051-2.886-0.188c-1.496,0.156-2.949,0.461-4.346,0.898
			c0.938,0.379,3.527,1.299,6.709,1.299c0.195,0,0.395-0.004,0.594-0.012c3.003-0.107,5.037-0.854,6.013-1.303
			c-1.359-0.425-2.775-0.718-4.232-0.873C25.448,44.842,24.842,44.912,24.161,44.936z"/>
		<path d="M37.215,4.737c-0.563-0.438-1.146-0.85-1.746-1.234c-1.736,1.113-5.306,2.688-11.621,2.688
			c-6.297,0-10.396-1.486-12.553-2.57c-0.623,0.406-1.227,0.842-1.805,1.307c2.09,1.223,6.719,3.264,14.357,3.264
			C31.409,8.19,35.432,6.067,37.215,4.737z"/>
		<path d="M42.208,10.164c-0.366-0.559-0.758-1.1-1.17-1.623c-1.782,1.34-6.838,4.25-17.194,4.25
			c-9.658,0-15.281-2.943-17.672-4.586C5.746,8.723,5.344,9.262,4.965,9.818c2.623,1.838,8.588,4.973,18.879,4.973
			C34.581,14.791,40.066,11.76,42.208,10.164z"/>
	</g>
</g>
<g>
</g>
<g>
</g>
<g>
</g>
<g>
</g>
<g>
</g>
<g>
</g>
<g>
</g>
<g>
</g>
<g>
</g>
<g>
</g>
<g>
</g>
<g>
</g>
<g>
</g>
<g>
</g>
<g>
</g>
</svg>
