<svg width="512.001" height="512.001" xmlns="http://www.w3.org/2000/svg">

 <g>
  <title>background</title>
  <rect fill="none" id="canvas_background" height="402" width="582" y="-1" x="-1"/>
 </g>
 <g>
  <title>Layer 1</title>
  <g id="svg_1">
   <g id="svg_2">
    <path id="svg_3" d="m505.341,112.076c-8.88,-8.88 -23.275,-8.877 -32.153,0l-150.782,150.783c-20.248,20.245 -53.015,20.246 -73.263,0c-20.199,-20.2 -20.199,-53.066 0,-73.263l150.782,-150.782c8.88,-8.88 8.88,-23.276 0,-32.153c-8.88,-8.882 -23.275,-8.881 -32.153,-0.001l-150.783,150.783c-32.391,32.391 -37.095,82.12 -14.16,119.577l-146.183,146.182c-15.013,-3.939 -31.655,-0.037 -43.422,11.729c-17.631,17.631 -17.631,46.215 0,63.847c17.631,17.631 46.215,17.631 63.846,0c11.766,-11.767 15.668,-28.41 11.729,-43.421l146.16,-146.16c37.131,22.835 86.867,18.549 119.6,-14.184l150.781,-150.783c8.881,-8.879 8.881,-23.275 0.001,-32.154z"/>
   </g>
  </g>
  <g id="svg_4"/>
  <g id="svg_5"/>
  <g id="svg_6"/>
  <g id="svg_7"/>
  <g id="svg_8"/>
  <g id="svg_9"/>
  <g id="svg_10"/>
  <g id="svg_11"/>
  <g id="svg_12"/>
  <g id="svg_13"/>
  <g id="svg_14"/>
  <g id="svg_15"/>
  <g id="svg_16"/>
  <g id="svg_17"/>
  <g id="svg_18"/>
  <line stroke="#000" stroke-linecap="undefined" stroke-linejoin="undefined" id="svg_19" y2="478.453629" x2="482.500478" y1="14.453638" x1="88.500479" stroke-width="40" fill="none"/>
  <ellipse stroke="#000" ry="19.791666" rx="19" id="svg_20" cy="466.870292" cx="467.530029" fill-opacity="null" stroke-opacity="null" stroke-width="50" fill="none"/>
 </g>
</svg>