# Rhino

mtllib å¶ç‰‡å•ç‹¬.mtl
usemtl diffuse_Black
v 2.5058248043060303 0.18050627410411835 5.5483832359313965
v 2.5058248043060303 0.18050627410411835 5.5483832359313965
v 2.5058248043060303 0.18050627410411835 5.5483832359313965
v 2.5058248043060303 0.18050627410411835 5.5483832359313965
v 2.5058248043060303 0.18050627410411835 5.5483832359313965
v 2.5058248043060303 0.18050627410411835 5.5483832359313965
v 2.5058248043060303 0.18050627410411835 5.5483832359313965
v 2.5058248043060303 0.18050627410411835 5.5483832359313965
v 2.0367131233215332 -0.4273773729801178 4.7948246002197266
v 1.9323166608810425 -0.30290707945823669 4.7856845855712891
v 1.8536661863327026 -0.15131509304046631 4.7848329544067383
v 1.8146189451217651 0.023784743621945381 4.7826390266418457
v 1.8195978403091431 0.20522648096084595 4.7750720977783203
v 1.8671542406082153 0.37422576546669006 4.7603940963745117
v 1.9518836736679077 0.51912015676498413 4.7382450103759766
v 2.049558162689209 0.62257248163223267 4.7161412239074707
v 1.5589650869369507 -0.78034234046936035 3.8229184150695801
v 1.3899143934249878 -0.58739697933197021 3.8499405384063721
v 1.2608556747436523 -0.34476646780967712 3.8794043064117432
v 1.1986602544784546 -0.05926717072725296 3.8959238529205322
v 1.2120416164398193 0.23807172477245331 3.8927438259124756
v 1.2988227605819702 0.51292592287063599 3.8669824600219727
v 1.4490664005279541 0.74290162324905396 3.8166735172271729
v 1.618700385093689 0.89972990751266479 3.7554895877838135
v 1.1621638536453247 -0.98434269428253174 2.6968777179718018
v 0.93145322799682617 -0.75613117218017578 2.7531390190124512
v 0.7539832592010498 -0.45909610390663147 2.8058691024780273
v 0.66866445541381836 -0.10280043631792068 2.8387272357940674
v 0.68827342987060547 0.27077654004096985 2.8437473773956299
v 0.81022191047668457 0.61481958627700806 2.8171830177307129
v 1.0212389230728149 0.8978235125541687 2.7545535564422607
v 1.2596571445465088 1.0841771364212036 2.6704244613647461
v 0.90542793273925781 -1.083957314491272 1.5483042001724243
v 0.61642837524414063 -0.84132075309753418 1.6062154769897461
v 0.3935791552066803 -0.51634657382965088 1.65981125831604
v 0.28509870171546936 -0.12056852132081985 1.696591854095459
v 0.30703487992286682 0.29661658406257629 1.7090684175491333
v 0.45667710900306702 0.67982107400894165 1.6929386854171753
v 0.71891880035400391 0.9910086989402771 1.6408505439758301
v 1.0184074640274048 1.1902996301651001 1.5620402097702026
v 0.78277778625488281 -1.1187385320663452 0.37461948394775391
v 0.44139400124549866 -0.87348794937133789 0.39425674080848694
v 0.17823661863803864 -0.53758621215820313 0.41676002740859985
v 0.047842886298894882 -0.12381685525178909 0.43841379880905151
v 0.068825386464595795 0.31393662095069885 0.45466887950897217
v 0.23860324919223785 0.71503311395645142 0.46120181679725647
v 0.54165029525756836 1.0371978282928467 0.44748023152351379
v 0.89280056953430176 1.2385214567184448 0.41018971800804138
v 0.7957756519317627 -1.1015503406524658 -0.78288054466247559
v 0.42044344544410706 -0.86306726932525635 -0.84826844930648804
v 0.13193811476230621 -0.53087246417999268 -0.89493399858474731
v -0.013103342615067959 -0.11816991120576859 -0.91274785995483398
v 0.0051182745955884457 0.31963375210762024 -0.89972376823425293
v 0.18429769575595856 0.71998780965805054 -0.85923397541046143
v 0.50999736785888672 1.0387502908706665 -0.80518913269042969
v 0.89311575889587402 1.2338789701461792 -0.7611815333366394
v 0.94516801834106445 -1.0350441932678223 -1.9369003772735596
v 0.56601905822753906 -0.81268930435180664 -2.0902280807495117
v 0.27642408013343811 -0.49883934855461121 -2.2080707550048828
v 0.12981761991977692 -0.10619527846574783 -2.2670421600341797
v 0.1449362188577652 0.31142464280128479 -2.2585139274597168
v 0.31966248154640198 0.69304352998733521 -2.18448805809021
v 0.64203906059265137 0.99516087770462036 -2.0608608722686768
v 1.0268634557723999 1.1773380041122437 -1.9308956861495972
v 1.2233351469039917 -0.91656064987182617 -3.0266799926757813
v 0.87113356590270996 -0.72035729885101318 -3.2475318908691406
v 0.60451436042785645 -0.43994614481925964 -3.4189503192901611
v 0.46929922699928284 -0.08667195588350296 -3.509138822555542
v 0.48130002617835999 0.29035797715187073 -3.5049917697906494
v 0.6384282112121582 0.6352725625038147 -3.407174825668335
v 0.93189215660095215 0.90784424543380737 -3.2311956882476807
v 1.2872738838195801 1.0710182189941406 -3.0332608222961426
v 1.6300832033157349 -0.73539423942565918 -4.0602240562438965
v 1.3338572978973389 -0.57709383964538574 -4.3122258186340332
v 1.1118686199188232 -0.34729227423667908 -4.5068840980529785
v 0.99941062927246094 -0.055208280682563782 -4.6111235618591309
v 1.0083054304122925 0.25809887051582336 -4.6107096672058105
v 1.1364576816558838 0.5457044243812561 -4.5053601264953613
v 1.3781341314315796 0.77357679605484009 -4.3076343536376953
v 1.6748186349868774 0.91025489568710327 -4.0761728286743164
v 2.1142044067382813 -0.50554633140563965 -4.9466900825500488
v 1.8918133974075317 -0.39250603318214417 -5.1759810447692871
v 1.7264317274093628 -0.22524859011173248 -5.3510966300964355
v 1.6426001787185669 -0.0104569336399436 -5.4451785087585449
v 1.6483994722366333 0.22137932479381561 -5.4464936256408691
v 1.7419759035110474 0.4352886974811554 -5.3544502258300781
v 1.9197441339492798 0.60581570863723755 -5.177269458770752
v 2.1402738094329834 0.7091410756111145 -4.9639487266540527
v 2.6773681640625 -0.21984095871448517 -5.7331314086914062
v 2.5477981567382813 -0.15923047065734863 -5.8828892707824707
v 2.4517800807952881 -0.067284770309925079 -5.9956140518188477
v 2.4028453826904297 0.05228351429104805 -6.0559453964233398
v 2.4054462909698486 0.18232373893260956 -6.0571351051330566
v 2.4583783149719238 0.30311682820320129 -5.9987902641296387
v 2.5597293376922607 0.40030947327613831 -5.8847246170043945
v 2.6864538192749023 0.46023276448249817 -5.7442636489868164
v 3.3098225593566895 0.14415685832500458 -6.4933600425720215
v 3.3098225593566895 0.14415685832500458 -6.4933600425720215
v 3.3098225593566895 0.14415685832500458 -6.4933600425720215
v 3.3098225593566895 0.14415685832500458 -6.4933600425720215
v 3.3098225593566895 0.14415685832500458 -6.4933600425720215
v 3.3098225593566895 0.14415685832500458 -6.4933600425720215
v 3.3098225593566895 0.14415685832500458 -6.4933600425720215
v 3.3098225593566895 0.14415685832500458 -6.4933600425720215
vt 0 0
vt 0 0.14285953342914581
vt 0 0.28646185994148254
vt 0 0.431235671043396
vt 0 0.57532244920730591
vt 0 0.71838241815567017
vt 0 0.86470448970794678
vt 0 1
vt 0.081681504845619202 0
vt 0.081681504845619202 0.14285953342914581
vt 0.081681504845619202 0.28646185994148254
vt 0.081681504845619202 0.431235671043396
vt 0.081681504845619202 0.57532244920730591
vt 0.081681504845619202 0.71838241815567017
vt 0.081681504845619202 0.86470448970794678
vt 0.081681504845619202 1
vt 0.16417405009269714 0
vt 0.16417405009269714 0.14285953342914581
vt 0.16417405009269714 0.28646185994148254
vt 0.16417405009269714 0.431235671043396
vt 0.16417405009269714 0.57532244920730591
vt 0.16417405009269714 0.71838241815567017
vt 0.16417405009269714 0.86470448970794678
vt 0.16417405009269714 1
vt 0.24940918385982513 0
vt 0.24940918385982513 0.14285953342914581
vt 0.24940918385982513 0.28646185994148254
vt 0.24940918385982513 0.431235671043396
vt 0.24940918385982513 0.57532244920730591
vt 0.24940918385982513 0.71838241815567017
vt 0.24940918385982513 0.86470448970794678
vt 0.24940918385982513 1
vt 0.33109068870544434 0
vt 0.33109068870544434 0.14285953342914581
vt 0.33109068870544434 0.28646185994148254
vt 0.33109068870544434 0.431235671043396
vt 0.33109068870544434 0.57532244920730591
vt 0.33109068870544434 0.71838241815567017
vt 0.33109068870544434 0.86470448970794678
vt 0.33109068870544434 1
vt 0.41291871666908264 0
vt 0.41291871666908264 0.14285953342914581
vt 0.41291871666908264 0.28646185994148254
vt 0.41291871666908264 0.431235671043396
vt 0.41291871666908264 0.57532244920730591
vt 0.41291871666908264 0.71838241815567017
vt 0.41291871666908264 0.86470448970794678
vt 0.41291871666908264 1
vt 0.49529987573623657 0
vt 0.49529987573623657 0.14285953342914581
vt 0.49529987573623657 0.28646185994148254
vt 0.49529987573623657 0.431235671043396
vt 0.49529987573623657 0.57532244920730591
vt 0.49529987573623657 0.71838241815567017
vt 0.49529987573623657 0.86470448970794678
vt 0.49529987573623657 1
vt 0.57947427034378052 0
vt 0.57947427034378052 0.14285953342914581
vt 0.57947427034378052 0.28646185994148254
vt 0.57947427034378052 0.431235671043396
vt 0.57947427034378052 0.57532244920730591
vt 0.57947427034378052 0.71838241815567017
vt 0.57947427034378052 0.86470448970794678
vt 0.57947427034378052 1
vt 0.66327321529388428 0
vt 0.66327321529388428 0.14285953342914581
vt 0.66327321529388428 0.28646185994148254
vt 0.66327321529388428 0.431235671043396
vt 0.66327321529388428 0.57532244920730591
vt 0.66327321529388428 0.71838241815567017
vt 0.66327321529388428 0.86470448970794678
vt 0.66327321529388428 1
vt 0.74964553117752075 0
vt 0.74964553117752075 0.14285953342914581
vt 0.74964553117752075 0.28646185994148254
vt 0.74964553117752075 0.431235671043396
vt 0.74964553117752075 0.57532244920730591
vt 0.74964553117752075 0.71838241815567017
vt 0.74964553117752075 0.86470448970794678
vt 0.74964553117752075 1
vt 0.83176350593566895 0
vt 0.83176350593566895 0.14285953342914581
vt 0.83176350593566895 0.28646185994148254
vt 0.83176350593566895 0.431235671043396
vt 0.83176350593566895 0.57532244920730591
vt 0.83176350593566895 0.71838241815567017
vt 0.83176350593566895 0.86470448970794678
vt 0.83176350593566895 1
vt 0.91362768411636353 0
vt 0.91362768411636353 0.14285953342914581
vt 0.91362768411636353 0.28646185994148254
vt 0.91362768411636353 0.431235671043396
vt 0.91362768411636353 0.57532244920730591
vt 0.91362768411636353 0.71838241815567017
vt 0.91362768411636353 0.86470448970794678
vt 0.91362768411636353 1
vt 1 0
vt 1 0.14285953342914581
vt 1 0.28646185994148254
vt 1 0.431235671043396
vt 1 0.57532244920730591
vt 1 0.71838241815567017
vt 1 0.86470448970794678
vt 1 1
vn 0.60022228956222534 0.25596994161605835 -0.75776815414428711
vn 0.61208546161651611 0.24332717061042786 -0.75242495536804199
vn 0.65774446725845337 0.16117854416370392 -0.73579460382461548
vn 0.70052409172058105 0.02027009055018425 -0.71334075927734375
vn 0.7051703929901123 -0.13151676952838898 -0.69673389196395874
vn 0.66827130317687988 -0.28430286049842834 -0.68744844198226929
vn 0.60029512643814087 -0.40911799669265747 -0.68721777200698853
vn 0.56693601608276367 -0.44875335693359375 -0.6907995343208313
vn 0.58938002586364746 0.49951902031898499 -0.63491100072860718
vn 0.6333126425743103 0.41434210538864136 -0.65363270044326782
vn 0.69725304841995239 0.25768196582794189 -0.66890823841094971
vn 0.73986601829528809 0.055088251829147339 -0.67049503326416016
vn 0.73649770021438599 -0.14675284922122955 -0.66032922267913818
vn 0.68618583679199219 -0.35558423399925232 -0.6345934271812439
vn 0.5839914083480835 -0.55505114793777466 -0.59234470129013062
vn 0.4987315833568573 -0.667702317237854 -0.55266666412353516
vn 0.57644522190093994 0.66003620624542236 -0.48172923922538757
vn 0.66196984052658081 0.52608382701873779 -0.53388363122940063
vn 0.74615937471389771 0.32439723610877991 -0.58138847351074219
vn 0.79377090930938721 0.07787119597196579 -0.60321128368377686
vn 0.78539067506790161 -0.16057324409484863 -0.59781080484390259
vn 0.71913725137710571 -0.40656277537345886 -0.56351423263549805
vn 0.58695656061172485 -0.64007103443145752 -0.49577322602272034
vn 0.46829089522361755 -0.77234488725662231 -0.42917010188102722
vn 0.56141102313995361 0.76309555768966675 -0.3201606273651123
vn 0.68633335828781128 0.61065000295639038 -0.39503547549247742
vn 0.80133223533630371 0.3785804808139801 -0.46318840980529785
vn 0.86163407564163208 0.094694025814533234 -0.49861788749694824
vn 0.84850054979324341 -0.17686083912849426 -0.4987654983997345
vn 0.76343750953674316 -0.45296654105186462 -0.46041777729988098
vn 0.59794533252716064 -0.70496350526809692 -0.38142868876457214
vn 0.44682878255844116 -0.84108960628509521 -0.30481523275375366
vn 0.52412360906600952 0.83363407850265503 -0.17420853674411774
vn 0.69254571199417114 0.67712348699569702 -0.24876527488231659
vn 0.84668797254562378 0.42403879761695862 -0.32141962647438049
vn 0.92430782318115234 0.11024322360754013 -0.36537855863571167
vn 0.90970468521118164 -0.19307725131511688 -0.36763912439346313
vn 0.80298614501953125 -0.49590867757797241 -0.33058717846870422
vn 0.60764110088348389 -0.75219106674194336 -0.25491347908973694
vn 0.42647740244865417 -0.88538467884063721 -0.18496225774288177
vn 0.48006024956703186 0.87612456083297729 -0.044135197997093201
vn 0.6799999475479126 0.72697848081588745 -0.095406040549278259
vn 0.87058848142623901 0.46801450848579407 -0.15178303420543671
vn 0.97350567579269409 0.12580639123916626 -0.19094353914260864
vn 0.95722353458404541 -0.21168993413448334 -0.19725728034973145
vn 0.8279109001159668 -0.53502565622329712 -0.16825902462005615
vn 0.59521377086639404 -0.79562592506408691 -0.11269385367631912
vn 0.40172335505485535 -0.91341125965118408 -0.065560624003410339
vn 0.41578808426856995 0.90686380863189697 0.068689726293087006
vn 0.63411849737167358 0.77106642723083496 0.057881366461515427
vn 0.85717290639877319 0.51347476243972778 0.039978232234716415
vn 0.98937666416168213 0.14390499889850616 0.020618833601474762
vn 0.97335159778594971 -0.22883147001266479 0.014926204457879066
vn 0.81920713186264038 -0.5731087327003479 0.021120505407452583
vn 0.55617797374725342 -0.83018797636032104 0.038131210952997208
vn 0.34638440608978271 -0.9368126392364502 0.048989087343215942
vn 0.34132683277130127 0.92495417594909668 0.16719977557659149
vn 0.56020200252532959 0.80322849750518799 0.20247891545295715
vn 0.79465979337692261 0.55809807777404785 0.23883545398712158
vn 0.95314532518386841 0.16686855256557465 0.25232681632041931
vn 0.93890988826751709 -0.24186079204082489 0.24484999477863312
vn 0.76594436168670654 -0.60456860065460205 0.21869157254695892
vn 0.48606735467910767 -0.85475623607635498 0.18201722204685211
vn 0.28630825877189636 -0.94575965404510498 0.15351320803165436
vn 0.2471209317445755 0.9371686577796936 0.24626429378986359
vn 0.45113298296928406 0.83221304416656494 0.32233598828315735
vn 0.68994200229644775 0.59718978404998779 0.40907743573188782
vn 0.86437737941741943 0.19214752316474915 0.46468380093574524
vn 0.85260474681854248 -0.25081679224967957 0.45842787623405457
vn 0.66938221454620361 -0.630698561668396 0.39261528849601746
vn 0.39590778946876526 -0.86816257238388062 0.29925030469894409
vn 0.20535348355770111 -0.9502144455909729 0.23435530066490173
vn 0.14526030421257019 0.9416995644569397 0.30348211526870728
vn 0.32751330733299255 0.85331785678863525 0.4056890606880188
vn 0.55774050951004028 0.63427913188934326 0.53536486625671387
vn 0.73489737510681152 0.22097566723823547 0.64116734266281128
vn 0.7252204418182373 -0.26155140995979309 0.63690358400344849
vn 0.54245388507843018 -0.65402317047119141 0.52725458145141602
vn 0.2902277410030365 -0.87617850303649902 0.38481047749519348
vn 0.12112489342689514 -0.9482276439666748 0.29358664155006409
vn 0.037000030279159546 0.94350147247314453 0.32929614186286926
vn 0.20533360540866852 0.87142091989517212 0.44549262523651123
vn 0.41528555750846863 0.6757628321647644 0.6090012788772583
vn 0.60222560167312622 0.2510589063167572 0.75782167911529541
vn 0.59980809688568115 -0.27069339156150818 0.75296437740325928
vn 0.41840517520904541 -0.67751950025558472 0.6049003005027771
vn 0.1915622353553772 -0.88239675760269165 0.42974394559860229
vn 0.034950565546751022 -0.9458996057510376 0.3225715160369873
vn -0.077766872942447662 0.93859243392944336 0.33614963293075562
vn 0.071367964148521423 0.88914316892623901 0.45202994346618652
vn 0.27739724516868591 0.71487623453140259 0.64187437295913696
vn 0.46876406669616699 0.28480669856071472 0.83614915609359741
vn 0.47221437096595764 -0.28922304511070251 0.83268457651138306
vn 0.29994982481002808 -0.70571446418762207 0.64187008142471313
vn 0.093724533915519714 -0.89208376407623291 0.4420432448387146
vn -0.040049728006124496 -0.94063860177993774 0.33703869581222534
vn -0.18126969039440155 0.9238969087600708 0.33698046207427979
vn -0.053228408098220825 0.88646668195724487 0.45972117781639099
vn 0.10812189429998398 0.73528897762298584 0.66907382011413574
vn 0.27887400984764099 0.30933031439781189 0.90914469957351685
vn 0.30093285441398621 -0.30435305833816528 0.9037746787071228
vn 0.1710369884967804 -0.72075951099395752 0.67175298929214478
vn 0.0082028796896338463 -0.89125597476959229 0.45342639088630676
vn -0.10783129185438156 -0.93182206153869629 0.34652572870254517
f 10/10/10 1/1/1 9/9/9
f 11/11/11 2/2/2 10/10/10
f 12/12/12 3/3/3 11/11/11
f 13/13/13 4/4/4 12/12/12
f 14/14/14 5/5/5 13/13/13
f 15/15/15 6/6/6 14/14/14
f 16/16/16 7/7/7 15/15/15
f 18/18/18 10/10/10 9/9/9 17/17/17
f 19/19/19 11/11/11 10/10/10 18/18/18
f 20/20/20 12/12/12 11/11/11 19/19/19
f 21/21/21 13/13/13 12/12/12 20/20/20
f 22/22/22 14/14/14 13/13/13 21/21/21
f 23/23/23 15/15/15 14/14/14 22/22/22
f 24/24/24 16/16/16 15/15/15 23/23/23
f 26/26/26 18/18/18 17/17/17 25/25/25
f 27/27/27 19/19/19 18/18/18 26/26/26
f 28/28/28 20/20/20 19/19/19 27/27/27
f 29/29/29 21/21/21 20/20/20 28/28/28
f 30/30/30 22/22/22 21/21/21 29/29/29
f 31/31/31 23/23/23 22/22/22 30/30/30
f 32/32/32 24/24/24 23/23/23 31/31/31
f 34/34/34 26/26/26 25/25/25 33/33/33
f 35/35/35 27/27/27 26/26/26 34/34/34
f 36/36/36 28/28/28 27/27/27 35/35/35
f 37/37/37 29/29/29 28/28/28 36/36/36
f 38/38/38 30/30/30 29/29/29 37/37/37
f 39/39/39 31/31/31 30/30/30 38/38/38
f 40/40/40 32/32/32 31/31/31 39/39/39
f 42/42/42 34/34/34 33/33/33 41/41/41
f 43/43/43 35/35/35 34/34/34 42/42/42
f 44/44/44 36/36/36 35/35/35 43/43/43
f 45/45/45 37/37/37 36/36/36 44/44/44
f 46/46/46 38/38/38 37/37/37 45/45/45
f 47/47/47 39/39/39 38/38/38 46/46/46
f 48/48/48 40/40/40 39/39/39 47/47/47
f 50/50/50 42/42/42 41/41/41 49/49/49
f 51/51/51 43/43/43 42/42/42 50/50/50
f 52/52/52 44/44/44 43/43/43 51/51/51
f 53/53/53 45/45/45 44/44/44 52/52/52
f 54/54/54 46/46/46 45/45/45 53/53/53
f 55/55/55 47/47/47 46/46/46 54/54/54
f 56/56/56 48/48/48 47/47/47 55/55/55
f 58/58/58 50/50/50 49/49/49 57/57/57
f 59/59/59 51/51/51 50/50/50 58/58/58
f 60/60/60 52/52/52 51/51/51 59/59/59
f 61/61/61 53/53/53 52/52/52 60/60/60
f 62/62/62 54/54/54 53/53/53 61/61/61
f 63/63/63 55/55/55 54/54/54 62/62/62
f 64/64/64 56/56/56 55/55/55 63/63/63
f 66/66/66 58/58/58 57/57/57 65/65/65
f 67/67/67 59/59/59 58/58/58 66/66/66
f 68/68/68 60/60/60 59/59/59 67/67/67
f 69/69/69 61/61/61 60/60/60 68/68/68
f 70/70/70 62/62/62 61/61/61 69/69/69
f 71/71/71 63/63/63 62/62/62 70/70/70
f 72/72/72 64/64/64 63/63/63 71/71/71
f 74/74/74 66/66/66 65/65/65 73/73/73
f 75/75/75 67/67/67 66/66/66 74/74/74
f 76/76/76 68/68/68 67/67/67 75/75/75
f 77/77/77 69/69/69 68/68/68 76/76/76
f 78/78/78 70/70/70 69/69/69 77/77/77
f 79/79/79 71/71/71 70/70/70 78/78/78
f 80/80/80 72/72/72 71/71/71 79/79/79
f 82/82/82 74/74/74 73/73/73 81/81/81
f 83/83/83 75/75/75 74/74/74 82/82/82
f 84/84/84 76/76/76 75/75/75 83/83/83
f 85/85/85 77/77/77 76/76/76 84/84/84
f 86/86/86 78/78/78 77/77/77 85/85/85
f 87/87/87 79/79/79 78/78/78 86/86/86
f 88/88/88 80/80/80 79/79/79 87/87/87
f 90/90/90 82/82/82 81/81/81 89/89/89
f 91/91/91 83/83/83 82/82/82 90/90/90
f 92/92/92 84/84/84 83/83/83 91/91/91
f 93/93/93 85/85/85 84/84/84 92/92/92
f 94/94/94 86/86/86 85/85/85 93/93/93
f 95/95/95 87/87/87 86/86/86 94/94/94
f 96/96/96 88/88/88 87/87/87 95/95/95
f 98/98/98 90/90/90 89/89/89
f 99/99/99 91/91/91 90/90/90
f 100/100/100 92/92/92 91/91/91
f 101/101/101 93/93/93 92/92/92
f 102/102/102 94/94/94 93/93/93
f 103/103/103 95/95/95 94/94/94
f 104/104/104 96/96/96 95/95/95
