<?xml version="1.0" encoding="iso-8859-1"?>
<!-- Generator: Adobe Illustrator 19.0.0, SVG Export Plug-In . SVG Version: 6.00 Build 0)  -->
<svg version="1.1" id="Capa_1" xmlns="http://www.w3.org/2000/svg" xmlns:xlink="http://www.w3.org/1999/xlink" x="0px" y="0px"
	 viewBox="0 0 511.999 511.999" style="enable-background:new 0 0 511.999 511.999;" xml:space="preserve">
<g>
	<g>
		<path d="M496.997,180.983c-36.228,0-66.536,25.814-73.507,60.013h-23.514v-55.012h-30.006v55.012h-30.006V165.98h-30.006v75.016
			H279.95v-95.02h-30.006v95.02h-30.006v-80.017h-30.006v80.017h-30.006v-90.019h-18.112c-62.869,0-119.164,40.217-140.082,100.072
			L0,255.999l1.729,4.95c20.919,59.857,77.214,100.073,140.082,100.073h18.112v-90.019h30.006v81.017h30.006v-81.017h30.006v95.02
			h30.006v-95.02h30.006v75.016h30.006v-75.016h30.006v55.012h30.006v-55.012h23.514c6.969,34.199,37.279,60.013,73.507,60.013
			h15.003V180.983H496.997z M129.918,330.409c-43.509-4.45-81.493-33.056-98.009-74.41c16.516-41.354,54.499-69.96,98.009-74.41
			V330.409z M481.994,298.439c-17.465-6.192-30.006-22.879-30.006-42.439s12.542-36.247,30.006-42.439V298.439z"/>
	</g>
</g>
<g>
</g>
<g>
</g>
<g>
</g>
<g>
</g>
<g>
</g>
<g>
</g>
<g>
</g>
<g>
</g>
<g>
</g>
<g>
</g>
<g>
</g>
<g>
</g>
<g>
</g>
<g>
</g>
<g>
</g>
</svg>
