<?xml version="1.0" encoding="iso-8859-1"?>
<!-- Generator: Adobe Illustrator 18.1.1, SVG Export Plug-In . SVG Version: 6.00 Build 0)  -->
<svg version="1.1" id="Capa_1" xmlns="http://www.w3.org/2000/svg" xmlns:xlink="http://www.w3.org/1999/xlink" x="0px" y="0px"
	 viewBox="0 0 18.016 18.016" style="enable-background:new 0 0 18.016 18.016;" xml:space="preserve">
<g>
	<g>
		<path style="fill:#030104;" d="M5.961,8.875c-1.089,0-1.973,0.883-1.973,1.973c0,0.035,0.009,0.068,0.011,0.104
			c-0.581,0.428-1.233,0.909-1.656,1.221c-0.235,0.174-0.389,0.288-0.389,0.288s-0.417-0.565-0.679-0.921
			c-0.261-0.354-0.33,0.108-0.33,0.108s-0.886,2.978-0.941,3.342c-0.04,0.264,0.237,0.282,0.237,0.282l3.441,0.192
			c0,0,0.451,0.081,0.235-0.211c-0.214-0.29-0.735-0.995-0.735-0.995s0.172-0.127,0.435-0.32c0.444-0.327,1.101-0.813,1.681-1.239
			c0.208,0.074,0.43,0.122,0.664,0.122c1.09,0,1.973-0.883,1.973-1.973S7.051,8.875,5.961,8.875z"/>
		<path style="fill:#030104;" d="M17.775,2.743l-3.44-0.191c0,0-0.45-0.082-0.236,0.209c0.215,0.291,0.735,0.996,0.735,0.996
			s-0.173,0.126-0.435,0.32c-0.444,0.328-1.102,0.812-1.681,1.24c-0.208-0.075-0.43-0.123-0.664-0.123
			c-1.089,0-1.973,0.883-1.973,1.973c0,1.089,0.884,1.973,1.973,1.973c1.09,0,1.974-0.884,1.974-1.973
			c0-0.036-0.009-0.068-0.011-0.104c0.58-0.428,1.233-0.909,1.656-1.221c0.235-0.174,0.389-0.287,0.389-0.287
			s0.417,0.565,0.679,0.92c0.261,0.354,0.329-0.108,0.329-0.108s0.887-2.977,0.942-3.341C18.052,2.762,17.775,2.743,17.775,2.743z"
			/>
	</g>
</g>
<g>
</g>
<g>
</g>
<g>
</g>
<g>
</g>
<g>
</g>
<g>
</g>
<g>
</g>
<g>
</g>
<g>
</g>
<g>
</g>
<g>
</g>
<g>
</g>
<g>
</g>
<g>
</g>
<g>
</g>
</svg>
