<svg height="512pt" viewBox="0 0 512 512" width="512pt" xmlns="http://www.w3.org/2000/svg"><path d="m0 0v512h512v-512zm482 182.957031c-26.347656-2.3125-41.171875-10.792969-57.933594-20.394531-20.441406-11.710938-43.613281-24.984375-87.757812-24.984375-1.066406 0-2.109375.015625-3.152344.03125 3.910156-13.402344 9.804688-23.699219 16.191406-34.851563 10.308594-17.992187 21.820313-38.105468 24.433594-72.757812h108.21875zm-137.667969 153.257813c0 36.160156-9.738281 53.164062-21.015625 72.851562-10.324218 18.023438-21.855468 38.171875-24.445312 72.933594h-130.589844c2.300781-26.402344 10.789062-41.242188 20.402344-58.023438 8.164062-14.257812 17.085937-29.851562 21.742187-52.953124 23.144531-4.652344 38.757813-13.582032 53.035157-21.761719 19.683593-11.273438 36.6875-21.015625 72.847656-21.015625 2.730468 0 5.335937.0625 7.855468.167968.109376 2.503907.167969 5.09375.167969 7.800782zm-8.023437-37.96875c-44.144532 0-67.316406 13.273437-87.761719 24.984375-11.167969 6.398437-21.480469 12.296875-34.910156 16.207031.015625-1.066406.03125-2.132812.03125-3.222656 0-44.144532-13.273438-67.316406-24.984375-87.761719-6.398438-11.167969-12.296875-21.476563-16.207032-34.90625 1.0625.015625 2.132813.03125 3.222657.03125 44.144531 0 67.316406-13.273437 87.761719-24.984375 11.167968-6.398438 21.476562-12.296875 34.902343-16.207031-.015625 1.0625-.027343 2.128906-.027343 3.214843 0 44.144532 13.269531 67.316407 24.980468 87.761719 6.398438 11.171875 12.300782 21.480469 16.210938 34.914063-1.0625-.015625-2.128906-.03125-3.21875-.03125zm-173.65625-34.882813c11.273437 19.6875 21.015625 36.691407 21.015625 72.851563 0 2.730468-.0625 5.34375-.171875 7.863281-2.5.109375-5.089844.167969-7.796875.167969-36.164063 0-53.164063-9.738282-72.851563-21.015625-18.007812-10.316407-38.140625-21.835938-72.847656-24.4375v-130.589844c26.351562 2.308594 41.175781 10.789063 57.9375 20.390625 14.257812 8.167969 29.855469 17.089844 52.957031 21.746094 4.648438 23.140625 13.582031 38.753906 21.757813 53.023437zm5.015625-87.757812c0-36.160157 9.738281-53.160157 21.015625-72.847657 10.304687-17.992187 21.816406-38.105468 24.429687-72.757812h130.589844c-2.320313 26.296875-10.796875 41.105469-20.386719 57.847656-8.167968 14.257813-17.089844 29.855469-21.746094 52.957032-23.136718 4.652343-38.75 13.582031-53.023437 21.757812-19.6875 11.277344-36.6875 21.015625-72.851563 21.015625-2.730468 0-5.339843-.058594-7.863281-.167969-.105469-2.503906-.164062-5.097656-.164062-7.804687zm181.679687 72.847656c-11.273437-19.6875-21.015625-36.6875-21.015625-72.851563 0-2.726562.0625-5.335937.171875-7.855468 2.503906-.105469 5.09375-.167969 7.804688-.167969 36.160156 0 53.160156 9.738281 72.847656 21.015625 18.003906 10.316406 38.136719 21.839844 72.84375 24.441406v130.589844c-26.347656-2.3125-41.171875-10.792969-57.933594-20.394531-14.257812-8.167969-29.855468-17.089844-52.957031-21.746094-4.652344-23.140625-13.585937-38.757813-21.761719-53.03125zm-166.3125-218.453125c-2.320312 26.296875-10.792968 41.105469-20.382812 57.847656-11.710938 20.441406-24.984375 43.613282-24.984375 87.757813 0 1.066406.011719 2.109375.027343 3.148437-13.398437-3.910156-23.691406-9.800781-34.847656-16.191406-18.007812-10.316406-38.140625-21.835938-72.847656-24.4375v-108.125zm-153.035156 298.867188c26.351562 2.3125 41.175781 10.792968 57.9375 20.394531 20.445312 11.710937 43.617188 24.984375 87.761719 24.984375 1.0625 0 2.105469-.015625 3.144531-.03125-3.910156 13.402344-9.804688 23.695312-16.191406 34.847656-10.324219 18.023438-21.855469 38.175781-24.445313 72.9375h-108.207031zm298.949219 153.132812c2.296875-26.40625 10.789062-41.242188 20.398437-58.023438 11.710938-20.445312 24.984375-43.617187 24.984375-87.761718 0-1.0625-.011719-2.105469-.027343-3.144532 13.402343 3.910157 23.695312 9.800782 34.851562 16.191407 18.003906 10.316406 38.136719 21.835937 72.84375 24.4375v108.300781zm0 0"/></svg>