<?xml version="1.0" encoding="iso-8859-1"?>
<!-- Generator: Adobe Illustrator 16.0.0, SVG Export Plug-In . SVG Version: 6.00 Build 0)  -->
<!DOCTYPE svg PUBLIC "-//W3C//DTD SVG 1.1//EN" "http://www.w3.org/Graphics/SVG/1.1/DTD/svg11.dtd">
<svg version="1.1" id="Capa_1" xmlns="http://www.w3.org/2000/svg" xmlns:xlink="http://www.w3.org/1999/xlink" x="0px" y="0px"
	 width="612px" height="612px" viewBox="0 0 612 612" style="enable-background:new 0 0 612 612;" xml:space="preserve">
<g>
	<g id="zoom">
		<g>
			<path d="M0,48.316v80.526h32.21V48.316c0-8.874,7.231-16.105,16.105-16.105h80.526V0H48.316C21.678,0,0,21.678,0,48.316z
				 M563.685,0h-80.526v32.21h80.526c8.874,0,16.104,7.231,16.104,16.105v80.526H612V48.316C612,21.678,590.322,0,563.685,0z
				 M32.21,563.685v-80.526H0v80.526C0,590.322,21.678,612,48.316,612h80.526v-32.211H48.316
				C39.442,579.789,32.21,572.559,32.21,563.685z M579.789,563.685c0,8.874-7.23,16.104-16.104,16.104h-80.526V612h80.526
				C590.322,612,612,590.322,612,563.685v-80.526h-32.211V563.685z M322.105,209.368h-32.211v80.526h-80.526v32.211h80.526v80.526
				h32.211v-80.526h80.526v-32.211h-80.526V209.368z"/>
		</g>
	</g>
</g>
<g>
</g>
<g>
</g>
<g>
</g>
<g>
</g>
<g>
</g>
<g>
</g>
<g>
</g>
<g>
</g>
<g>
</g>
<g>
</g>
<g>
</g>
<g>
</g>
<g>
</g>
<g>
</g>
<g>
</g>
</svg>
