<?xml version="1.0" encoding="iso-8859-1"?>
<!-- Generator: Adobe Illustrator 16.0.0, SVG Export Plug-In . SVG Version: 6.00 Build 0)  -->
<!DOCTYPE svg PUBLIC "-//W3C//DTD SVG 1.1//EN" "http://www.w3.org/Graphics/SVG/1.1/DTD/svg11.dtd">
<svg version="1.1" id="Capa_1" xmlns="http://www.w3.org/2000/svg" xmlns:xlink="http://www.w3.org/1999/xlink" x="0px" y="0px"
	 width="48.681px" height="48.681px" viewBox="0 0 48.681 48.681" style="enable-background:new 0 0 48.681 48.681;"
	 xml:space="preserve">
<g>
	<path d="M45.569,13.662c-0.001-0.206-0.03-0.408-0.083-0.602c-0.014-0.05-0.041-0.093-0.059-0.142
		c-0.049-0.143-0.1-0.284-0.174-0.415c-0.037-0.064-0.09-0.115-0.133-0.177c-0.074-0.104-0.144-0.21-0.234-0.301
		c-0.059-0.058-0.131-0.103-0.195-0.155c-0.085-0.068-0.162-0.146-0.257-0.203L25.543,0.333c-0.742-0.444-1.666-0.444-2.407,0
		L4.245,11.668c-0.095,0.057-0.171,0.135-0.255,0.203c-0.065,0.052-0.139,0.098-0.198,0.155c-0.09,0.091-0.16,0.197-0.233,0.301
		c-0.043,0.06-0.096,0.112-0.133,0.177c-0.074,0.128-0.124,0.268-0.172,0.408c-0.018,0.051-0.047,0.097-0.061,0.148
		c-0.053,0.193-0.082,0.396-0.082,0.602c0,0.001,0,0.003,0,0.003v0.007V34.12c0,0.793,0.401,1.531,1.067,1.963L23.07,48.307
		c0.025,0.017,0.056,0.021,0.082,0.036c0.026,0.016,0.045,0.04,0.071,0.054c0.098,0.053,0.203,0.08,0.305,0.118
		c0.067,0.026,0.129,0.06,0.197,0.078c0.203,0.055,0.409,0.088,0.616,0.088s0.413-0.033,0.615-0.088
		c0.068-0.02,0.13-0.052,0.197-0.078c0.103-0.038,0.207-0.065,0.304-0.118c0.026-0.014,0.047-0.038,0.071-0.054
		c0.026-0.015,0.058-0.021,0.082-0.036l18.892-12.225c0.666-0.432,1.067-1.17,1.067-1.963V13.671l-0.001-0.004
		C45.568,13.668,45.569,13.663,45.569,13.662z M7.785,17.841l14.217,8.698v15.509l-14.217-9.2V17.841z"/>
</g>
<g>
</g>
<g>
</g>
<g>
</g>
<g>
</g>
<g>
</g>
<g>
</g>
<g>
</g>
<g>
</g>
<g>
</g>
<g>
</g>
<g>
</g>
<g>
</g>
<g>
</g>
<g>
</g>
<g>
</g>
</svg>
