<?xml version="1.0" encoding="iso-8859-1"?>
<!-- Generator: Adobe Illustrator 19.0.0, SVG Export Plug-In . SVG Version: 6.00 Build 0)  -->
<svg version="1.1" id="Capa_1" xmlns="http://www.w3.org/2000/svg" xmlns:xlink="http://www.w3.org/1999/xlink" x="0px" y="0px"
	 viewBox="0 0 57.256 57.256" style="enable-background:new 0 0 57.256 57.256;" xml:space="preserve">
<g>
	<path d="M54.381,37.274L29.489,52.921L2.711,37.418c-0.713,0.6-1.174,1.452-1.236,2.401c-0.077,1.16,0.43,2.273,1.354,2.978
		l24.244,13.795c0.588,0.429,1.309,0.664,2.037,0.664c0.709,0,1.392-0.214,1.912-0.58l23.283-13.784
		c1.001-0.697,1.553-1.84,1.476-3.057C55.715,38.797,55.2,37.875,54.381,37.274z"/>
	<path d="M52.042,36.382l-8.032-2.579c0.494,2.38-0.183,4.863-1.846,6.583c-1.927,1.992-5.867,4.366-13.696,4.366
		s-11.77-2.374-13.696-4.366c-1.772-1.833-2.442-4.534-1.749-7.049l0.126-0.456l-8.293,3.466l24.591,14.237L52.042,36.382z"/>
	<path d="M28.822,30.753c4.709,0,8.203-1.898,9.764-3.524l1.229-1.229l-1.896-6.875l-0.738,0.446
		c-1.393,0.656-5.031,2.183-8.712,2.183c-3.071,0-6.188-0.751-8.776-2.115l-0.203-0.141l-0.459-0.413l-1.844,6.686l1.219,1.298
		C20.13,29.302,24.292,30.753,28.822,30.753z"/>
	<path d="M28.468,19.753c3.238,0,6.51-1.36,7.813-1.97l1.085-0.656l-1.947-7.058l-2.388,0.864c-1.392,0.44-2.593,0.82-4.563,0.82
		c-2.284,0-3.287-0.348-4.805-0.875l-0.618-0.219l-1.499-0.7l-1.923,6.969l1.108,0.996C23.016,19.104,25.759,19.753,28.468,19.753z"
		/>
	<path d="M24.319,8.989c1.466,0.509,2.201,0.764,4.148,0.764c1.662,0,2.626-0.305,3.96-0.727l0.749-0.233l1.719-0.625l-0.473-1.716
		c-0.463-1.465-0.987-2.747-1.559-3.811C31.989,1.012,30.288,0,28.424,0c-1.879,0-3.579,1.024-4.436,2.673
		c-0.553,1.061-1.051,2.338-1.484,3.813l-0.419,1.517l1.758,0.821L24.319,8.989z"/>
	<path d="M28.468,42.753c7.128,0,10.601-2.042,12.259-3.756c1.282-1.326,1.765-3.291,1.259-5.128l-1.559-5.652l-0.412,0.412
		c-1.907,1.986-5.86,4.125-11.192,4.125c-5.199,0-9.886-1.723-11.939-4.39l-0.32-0.341l-1.613,5.846
		c-0.506,1.837-0.023,3.802,1.259,5.128C17.867,40.71,21.34,42.753,28.468,42.753z"/>
</g>
<g>
</g>
<g>
</g>
<g>
</g>
<g>
</g>
<g>
</g>
<g>
</g>
<g>
</g>
<g>
</g>
<g>
</g>
<g>
</g>
<g>
</g>
<g>
</g>
<g>
</g>
<g>
</g>
<g>
</g>
</svg>
