<?xml version="1.0" encoding="iso-8859-1"?>
<!-- Generator: Adobe Illustrator 16.0.0, SVG Export Plug-In . SVG Version: 6.00 Build 0)  -->
<!DOCTYPE svg PUBLIC "-//W3C//DTD SVG 1.1//EN" "http://www.w3.org/Graphics/SVG/1.1/DTD/svg11.dtd">
<svg version="1.1" id="Capa_1" xmlns="http://www.w3.org/2000/svg" xmlns:xlink="http://www.w3.org/1999/xlink" x="0px" y="0px"
	 width="82.652px" height="82.652px" viewBox="0 0 82.652 82.652" style="enable-background:new 0 0 82.652 82.652;"
	 xml:space="preserve">
<g>
	<path d="M19.311,34.108c0.42,0.661,0.865,1.294,1.33,1.901c-0.012,0.113-0.02,0.228-0.02,0.34l0.055,11.922
		c-7.939-4.389-13.33-12.844-13.33-22.539C7.346,11.543,18.889,0,33.078,0c13.895,0,25.245,11.072,25.709,24.854l-2.412-1.169
		c-0.407-3.633-1.662-7.32-3.826-10.721C45.834,2.407,32.914-1.442,23.75,4.388C14.586,10.217,12.597,23.551,19.311,34.108z
		 M75.307,37.119v31.516c0,0.392-0.215,0.748-0.557,0.937L50.861,82.524c-0.156,0.085-0.332,0.128-0.504,0.128
		c-0.189,0-0.377-0.051-0.545-0.15c-0.098-0.059-0.178-0.135-0.252-0.219h-0.002c-0.172,0-0.346-0.041-0.503-0.125L24.862,69.49
		c-0.342-0.186-0.557-0.543-0.559-0.932l-0.141-30.292c0-0.13,0.029-0.254,0.074-0.371c0-0.008-0.002-0.014-0.002-0.02
		c0.002-0.398,0.228-0.764,0.584-0.943L49.15,24.247c0.278-0.139,0.604-0.15,0.891-0.029L74.658,36.14
		c0.02,0.01,0.035,0.025,0.057,0.035c0.025,0.012,0.051,0.018,0.074,0.031c0.022,0.016,0.043,0.035,0.064,0.053
		c0.036,0.025,0.069,0.049,0.1,0.078c0.041,0.037,0.076,0.074,0.108,0.115c0.024,0.033,0.054,0.064,0.074,0.1
		c0.028,0.045,0.051,0.094,0.071,0.145c0.019,0.037,0.035,0.072,0.048,0.111c0.018,0.055,0.024,0.113,0.032,0.172
		c0.004,0.029,0.017,0.058,0.017,0.088c0,0.008-0.002,0.016,0,0.023C75.306,37.101,75.307,37.109,75.307,37.119z M71.789,37.237
		l-22.121-10.87l-22.03,11.525l22.709,11.334L71.789,37.237z M73.182,38.9L51.421,51.062v28.746l21.762-11.808L73.182,38.9
		L73.182,38.9z"/>
</g>
<g>
</g>
<g>
</g>
<g>
</g>
<g>
</g>
<g>
</g>
<g>
</g>
<g>
</g>
<g>
</g>
<g>
</g>
<g>
</g>
<g>
</g>
<g>
</g>
<g>
</g>
<g>
</g>
<g>
</g>
</svg>
