<?xml version="1.0" encoding="iso-8859-1"?>
<!-- Generator: Adobe Illustrator 16.0.0, SVG Export Plug-In . SVG Version: 6.00 Build 0)  -->
<!DOCTYPE svg PUBLIC "-//W3C//DTD SVG 1.1//EN" "http://www.w3.org/Graphics/SVG/1.1/DTD/svg11.dtd">
<svg version="1.1" id="Capa_1" xmlns="http://www.w3.org/2000/svg" xmlns:xlink="http://www.w3.org/1999/xlink" x="0px" y="0px"
	 width="45.873px" height="45.873px" viewBox="0 0 45.873 45.873" style="enable-background:new 0 0 45.873 45.873;"
	 xml:space="preserve">
<g>
	<g>
		<path d="M42.155,10.419c0.987-1.882,0.715-4.254-0.868-5.837s-3.956-1.857-5.838-0.868C31.756,1.298,27.446,0,22.93,0
			C16.803,0,11.044,2.386,6.711,6.718c-8.942,8.943-8.942,23.495,0,32.437c4.333,4.332,10.093,6.719,16.219,6.719
			s11.888-2.387,16.22-6.719c4.331-4.332,6.718-10.092,6.719-16.218C45.869,18.423,44.569,14.11,42.155,10.419z M36.368,36.371
			c-3.59,3.589-8.361,5.566-13.438,5.566s-9.847-1.978-13.436-5.566c-7.408-7.407-7.408-19.462,0-26.871
			c3.588-3.588,8.36-5.565,13.436-5.565c3.605,0,7.049,1.015,10.032,2.879c-0.447,1.666-0.039,3.514,1.269,4.822
			c1.31,1.308,3.156,1.717,4.822,1.269c1.864,2.984,2.879,6.427,2.879,10.032C41.932,28.012,39.955,32.783,36.368,36.371z"/>
		<circle cx="22.93" cy="22.936" r="6.969"/>
	</g>
</g>
<g>
</g>
<g>
</g>
<g>
</g>
<g>
</g>
<g>
</g>
<g>
</g>
<g>
</g>
<g>
</g>
<g>
</g>
<g>
</g>
<g>
</g>
<g>
</g>
<g>
</g>
<g>
</g>
<g>
</g>
</svg>
