<?xml version="1.0" encoding="iso-8859-1"?>
<!-- Generator: Adobe Illustrator 19.0.0, SVG Export Plug-In . SVG Version: 6.00 Build 0)  -->
<svg version="1.1" id="Capa_1" xmlns="http://www.w3.org/2000/svg" xmlns:xlink="http://www.w3.org/1999/xlink" x="0px" y="0px"
	 viewBox="0 0 512.002 512.002" style="enable-background:new 0 0 512.002 512.002;" xml:space="preserve">
<g>
	<g>
		<path d="M288.265,380.223l-6.303-1.278c-12.911-2.617-22.944-12.651-25.562-25.562l-1.278-6.304
			c-1.474-7.264-7.678-12.338-15.091-12.338s-13.617,5.073-15.091,12.339l-1.278,6.303c-2.617,12.911-12.651,22.945-25.562,25.562
			l-6.303,1.279c-7.264,1.473-12.339,7.678-12.339,15.091c0,7.412,5.074,13.617,12.339,15.091l6.303,1.278
			c12.911,2.617,22.945,12.651,25.562,25.562l1.278,6.304c1.474,7.264,7.678,12.338,15.091,12.338s13.617-5.073,15.091-12.338
			l1.278-6.304c2.617-12.911,12.651-22.945,25.562-25.562l6.303-1.278c7.264-1.473,12.339-7.678,12.339-15.091
			C300.604,387.903,295.53,381.696,288.265,380.223z M285.368,395.452c-0.031,0.011-0.073,0.022-0.127,0.034l-6.303,1.278
			c-18.918,3.836-33.62,18.538-37.456,37.456l-1.278,6.303c-0.011,0.054-0.021,0.095-0.031,0.127c-0.082,0.018-0.197,0.018-0.279,0
			c-0.009-0.03-0.021-0.072-0.031-0.127l-1.278-6.304c-3.836-18.918-18.538-33.621-37.457-37.456l-6.303-1.278
			c-0.054-0.011-0.095-0.022-0.127-0.031c-0.018-0.082-0.018-0.197,0-0.279c0.03-0.01,0.072-0.021,0.127-0.031l6.303-1.279
			c18.919-3.835,33.621-18.538,37.457-37.456l1.278-6.303c0.011-0.054,0.022-0.096,0.031-0.127c0.082-0.018,0.197-0.018,0.279,0
			c0.009,0.03,0.021,0.072,0.031,0.127l1.278,6.303c3.836,18.918,18.538,33.621,37.456,37.456l6.303,1.278
			c0.054,0.011,0.095,0.022,0.127,0.031C285.386,395.255,285.386,395.37,285.368,395.452z"/>
	</g>
</g>
<g>
	<g>
		<path d="M391.298,407.923c-4.203,0-7.611,3.408-7.611,7.611v20.609c0,4.203,3.408,7.611,7.611,7.611s7.611-3.408,7.611-7.611
			v-20.609C398.909,411.331,395.501,407.923,391.298,407.923z"/>
	</g>
</g>
<g>
	<g>
		<path d="M391.298,463.406c-4.203,0-7.611,3.408-7.611,7.611v20.609c0,4.203,3.408,7.611,7.611,7.611s7.611-3.408,7.611-7.611
			v-20.609C398.909,466.814,395.501,463.406,391.298,463.406z"/>
	</g>
</g>
<g>
	<g>
		<path d="M429.345,445.968h-20.609c-4.203,0-7.611,3.408-7.611,7.611c0,4.203,3.408,7.611,7.611,7.611h20.609
			c4.203,0,7.611-3.408,7.611-7.611C436.956,449.376,433.548,445.968,429.345,445.968z"/>
	</g>
</g>
<g>
	<g>
		<path d="M373.861,445.968h-20.609c-4.203,0-7.611,3.408-7.611,7.611c0,4.203,3.408,7.611,7.611,7.611h20.609
			c4.203,0,7.611-3.408,7.611-7.611C381.472,449.376,378.064,445.968,373.861,445.968z"/>
	</g>
</g>
<g>
	<g>
		<path d="M45.657,312.019c-4.203,0-7.611,3.408-7.611,7.611v20.609c0,4.204,3.408,7.611,7.611,7.611s7.611-3.408,7.611-7.611
			v-20.609C53.268,315.427,49.861,312.019,45.657,312.019z"/>
	</g>
</g>
<g>
	<g>
		<path d="M45.657,367.503c-4.203,0-7.611,3.408-7.611,7.611v20.609c0,4.204,3.408,7.611,7.611,7.611s7.611-3.408,7.611-7.611
			v-20.609C53.268,370.911,49.861,367.503,45.657,367.503z"/>
	</g>
</g>
<g>
	<g>
		<path d="M83.704,350.066H63.095c-4.204,0-7.611,3.408-7.611,7.611s3.408,7.611,7.611,7.611h20.609
			c4.203,0,7.611-3.408,7.611-7.611S87.907,350.066,83.704,350.066z"/>
	</g>
</g>
<g>
	<g>
		<path d="M28.22,350.066H7.611c-4.204,0-7.611,3.408-7.611,7.611s3.408,7.611,7.611,7.611H28.22c4.204,0,7.611-3.408,7.611-7.611
			S32.423,350.066,28.22,350.066z"/>
	</g>
</g>
<g>
	<g>
		<path d="M392.284,14.471c-4.203,0-7.611,3.408-7.611,7.611v20.609c0,4.203,3.408,7.611,7.611,7.611s7.611-3.408,7.611-7.611
			V22.083C399.896,17.879,396.488,14.471,392.284,14.471z"/>
	</g>
</g>
<g>
	<g>
		<path d="M392.284,69.955c-4.203,0-7.611,3.408-7.611,7.611v20.609c0,4.203,3.408,7.61,7.611,7.61s7.611-3.408,7.611-7.611V77.567
			C399.896,73.363,396.488,69.955,392.284,69.955z"/>
	</g>
</g>
<g>
	<g>
		<path d="M430.331,52.517h-20.609c-4.204,0-7.611,3.408-7.611,7.611c0,4.203,3.408,7.611,7.611,7.611h20.609
			c4.204,0,7.611-3.408,7.611-7.611C437.942,55.925,434.534,52.517,430.331,52.517z"/>
	</g>
</g>
<g>
	<g>
		<path d="M374.847,52.517h-20.609c-4.204,0-7.611,3.408-7.611,7.611c0,4.203,3.408,7.611,7.611,7.611h20.609
			c4.203,0,7.611-3.408,7.611-7.611C382.458,55.925,379.051,52.517,374.847,52.517z"/>
	</g>
</g>
<g>
	<g>
		<path d="M290.164,118.881l-30.171-6.117c-26.793-5.432-47.616-26.255-53.048-53.048l-6.117-30.17
			c-2.035-10.038-10.283-16.782-20.525-16.782c-10.241,0-18.491,6.745-20.526,16.782l-6.117,30.17
			c-5.432,26.793-26.255,47.616-53.048,53.048l-30.17,6.117c-10.038,2.035-16.782,10.284-16.782,20.525
			c0,10.242,6.745,18.491,16.782,20.525l30.17,6.116c26.793,5.432,47.616,26.255,53.048,53.048l6.117,30.17
			c2.035,10.038,10.284,16.782,20.526,16.782s18.49-6.745,20.525-16.782l6.117-30.17c5.432-26.793,26.255-47.617,53.048-53.048
			l30.171-6.116c10.038-2.035,16.782-10.284,16.782-20.525C306.946,129.166,300.202,120.917,290.164,118.881z M287.14,145.013
			l-30.17,6.117c-32.801,6.65-58.293,32.141-64.943,64.943l-6.117,30.17c-0.863,4.253-4.509,4.584-5.606,4.584
			s-4.744-0.331-5.606-4.584l-6.117-30.17c-6.65-32.801-32.141-58.293-64.943-64.943l-30.17-6.117
			c-4.253-0.863-4.584-4.509-4.584-5.606s0.331-4.744,4.584-5.607l30.17-6.116c32.801-6.65,58.293-32.142,64.943-64.942l6.117-30.17
			c0.863-4.253,4.509-4.584,5.606-4.584s4.743,0.331,5.606,4.584l6.117,30.17c6.65,32.801,32.142,58.293,64.943,64.942l30.17,6.116
			c4.253,0.863,4.584,4.509,4.584,5.607C291.724,140.505,291.393,144.151,287.14,145.013z"/>
	</g>
</g>
<g>
	<g>
		<path d="M497.698,231.343l-23.17-4.698c-19.88-4.031-35.33-19.48-39.36-39.36l-4.698-23.17
			c-1.707-8.421-8.901-14.303-17.493-14.303c-8.593,0-15.787,5.882-17.494,14.303l-4.698,23.17
			c-4.03,19.88-19.479,35.329-39.36,39.36l-23.17,4.698c-8.421,1.707-14.303,8.901-14.303,17.494
			c0,8.593,5.881,15.786,14.303,17.494l23.17,4.698c19.88,4.03,35.33,19.48,39.36,39.359l4.698,23.17
			c1.708,8.421,8.901,14.303,17.495,14.303c8.593,0,15.786-5.882,17.493-14.303l4.698-23.17c4.03-19.88,19.48-35.329,39.36-39.359
			l23.17-4.698c8.421-1.708,14.303-8.901,14.303-17.494C512.002,240.244,506.119,233.051,497.698,231.343z M494.672,251.411
			l-23.17,4.698c-25.887,5.249-46.006,25.367-51.254,51.254l-4.698,23.17c-0.283,1.396-1.149,2.105-2.575,2.105
			c-1.426,0-2.292-0.708-2.575-2.105l-4.698-23.17c-5.248-25.888-25.367-46.006-51.254-51.254l-23.17-4.698
			c-1.396-0.283-2.105-1.15-2.105-2.575s0.708-2.292,2.105-2.575l23.17-4.698c25.888-5.249,46.006-25.367,51.254-51.254l4.698-23.17
			c0.283-1.396,1.15-2.105,2.575-2.105c1.425,0,2.292,0.708,2.575,2.105l4.698,23.17c5.249,25.887,25.367,46.006,51.254,51.254
			l23.17,4.698c1.396,0.283,2.105,1.15,2.105,2.575S496.07,251.128,494.672,251.411z"/>
	</g>
</g>
<g>
</g>
<g>
</g>
<g>
</g>
<g>
</g>
<g>
</g>
<g>
</g>
<g>
</g>
<g>
</g>
<g>
</g>
<g>
</g>
<g>
</g>
<g>
</g>
<g>
</g>
<g>
</g>
<g>
</g>
</svg>
