<?xml version="1.0" encoding="iso-8859-1"?>
<!-- Generator: Adobe Illustrator 18.1.1, SVG Export Plug-In . SVG Version: 6.00 Build 0)  -->
<svg version="1.1" id="Capa_1" xmlns="http://www.w3.org/2000/svg" xmlns:xlink="http://www.w3.org/1999/xlink" x="0px" y="0px"
	 viewBox="0 0 308.83 308.83" style="enable-background:new 0 0 308.83 308.83;" xml:space="preserve">
<g>
	<g id="Layer_5_43_">
		<g>
			<path d="M0,40.564C0,54.93,11.646,66.575,26.012,66.575c10.815,0,20.085-6.6,24.008-15.991c0.778-1.861,2.576-1.834,3.361,0.038
				c3.932,9.372,13.193,15.953,23.992,15.953c10.846,0,20.14-6.638,24.044-16.074c0.758-1.836,2.473-1.983,3.188-0.207
				c3.853,9.544,13.203,16.281,24.129,16.281c10.924,0,20.273-6.735,24.125-16.28c0.717-1.777,2.394-1.777,3.109,0
				c3.853,9.545,13.203,16.28,24.126,16.28c10.925,0,20.275-6.735,24.125-16.28c0.719-1.777,2.393-1.777,3.107-0.001
				c3.853,9.544,13.204,16.281,24.129,16.281s20.275-6.735,24.126-16.28c0.715-1.777,2.392-1.777,3.106-0.001
				c3.853,9.544,13.202,16.281,24.128,16.281c14.366,0,26.013-11.645,26.013-26.011V6.293c0,0,0-5.133-5.42-5.133
				c-74.054,0-220.805,0-296.213,0C0,1.16,0,6.496,0,6.496L0,40.564z"/>
			<path d="M0,161.691v140.786c0,4.853,3.864,4.814,5.771,4.822c44.73,0.175,74.076,7.081,74.076-47.196
				c0-39.241-9.771-77.208-36.916-108.992c-2.436-2.468-4.41-2.445-5.273-2.045c-10.574,4.886-21.933,7.871-33.075,8.521
				C3.051,157.677,0,157.763,0,161.691z"/>
			<path d="M308.83,161.691v140.786c0,4.853-3.864,4.814-5.771,4.822c-44.73,0.175-74.077,7.081-74.077-47.196
				c0-39.241,9.771-77.208,36.916-108.992c2.436-2.468,4.411-2.445,5.273-2.045c10.573,4.886,21.932,7.871,33.075,8.521
				C305.779,157.677,308.83,157.763,308.83,161.691z"/>
			<path d="M53.937,77.107c-2.291-1.409-4.655,0.149-5.929,0.939c-6.46,4.002-14.031,6.242-21.997,6.242
				c-6.87,0-13.354-1.672-19.071-4.628C4.474,78.386,0,76.118,0,82.713v52.431c0,4.396,3.022,3.699,4.545,3.702
				c31.551,0.071,53.454-26.244,59.936-54.273c0.424-2.21-1.35-2.731-2.164-3.002C59.164,80.528,57.086,79.564,53.937,77.107z"/>
			<path d="M282.817,84.289c-8.023,0-15.626-2.255-22.098-6.286c-1.237-0.771-3.383-2.726-5.453-1.133
				c-3.232,2.523-5.583,3.642-8.979,4.778c-0.761,0.256-2.56,0.365-1.893,3.098c6.485,28.025,28.343,54.172,59.891,54.101
				c1.522-0.003,4.545,0.694,4.545-3.702V81.311c0-5.813-3.383-3.653-5.212-2.596C297.491,82.257,290.389,84.289,282.817,84.289z"/>
			<path d="M217.224,307.671c7.333,0,4.295-3.233,3.391-4.479c-9.648-13.276-10.348-30.017-10.348-43.089
				c0-1.942,0.623-5.787-4.627-5.787H104.89c-6.75,0-6.33,6.668-6.333,7.116c-0.088,12.258-1.474,28.078-9.581,40.626
				c-1.266,1.959-3.92,5.612,4.413,5.612L217.224,307.671L217.224,307.671z"/>
		</g>
	</g>
</g>
<g>
</g>
<g>
</g>
<g>
</g>
<g>
</g>
<g>
</g>
<g>
</g>
<g>
</g>
<g>
</g>
<g>
</g>
<g>
</g>
<g>
</g>
<g>
</g>
<g>
</g>
<g>
</g>
<g>
</g>
</svg>
