<svg height="512pt" viewBox="0 0 512.00016 512" width="512pt" xmlns="http://www.w3.org/2000/svg"><path d="m501.855469 18.949219-2.394531-6.410157-6.410157-2.394531c-1.117187-.417969-27.636719-10.144531-67.949219-10.144531-.414062 0-.839843 0-1.257812.00390625-37.496094.18749975-94.644531 9.19531275-153.984375 51.04687475l-14.550781 10.261719 87.089844 87.085938-28.214844 28.214843-77.796875-77.796875-21.203125 21.203125 77.796875 77.796875-30.175781 30.171875-70.15625-70.15625-21.199219 21.203125 70.15625 70.15625-30.171875 30.171875-48.296875-48.292969-21.203125 21.203126 48.296875 48.292968-33.132813 33.132813c-8.027344-3.558594-20.152344-8.042969-35.136718-10.804688-36.105469-6.652343-72.378907-.367187-104.894532 18.179688l-17.066406 9.730469 161.195312 161.195312 9.730469-17.066406c18.546875-32.515625 24.832031-68.785156 18.179688-104.894532-2.761719-14.984374-7.242188-27.109374-10.804688-35.136718l33.132813-33.132813 48.292968 48.296875 21.203126-21.203125-48.292969-48.296875 30.171875-30.171875 70.15625 70.15625 21.203125-21.203125-70.15625-70.15625 30.171875-30.171875 77.605468 77.605469 21.203126-21.203125-77.605469-77.605469 28.214843-28.214844 87.085938 87.085938 10.261719-14.550781c41.851562-59.335938 50.859375-116.488281 51.046875-153.980469.207031-41.015625-9.71875-68.078125-10.140625-69.207031zm-348.316407 442.988281-103.476562-103.476562c20.9375-8.101563 42.835938-10.214844 65.324219-6.28125 16.035156 2.808593 28.089843 8.085937 33.601562 10.832031 2.746094 5.511719 8.023438 17.566406 10.832031 33.601562 3.9375 22.492188 1.820313 44.386719-6.28125 65.324219zm292.753907-252.050781-144.191407-144.1875c37.878907-23.238281 78.355469-35.234375 120.5625-35.699219 24.667969-.28125 43.613282 3.683594 53.144532 6.214844 5.839844 21.925781 19.183594 94.046875-29.515625 173.671875zm0 0"/></svg>