<?xml version="1.0" encoding="iso-8859-1"?>
<!-- Generator: Adobe Illustrator 16.0.0, SVG Export Plug-In . SVG Version: 6.00 Build 0)  -->
<!DOCTYPE svg PUBLIC "-//W3C//DTD SVG 1.1//EN" "http://www.w3.org/Graphics/SVG/1.1/DTD/svg11.dtd">
<svg version="1.1" id="Capa_1" xmlns="http://www.w3.org/2000/svg" xmlns:xlink="http://www.w3.org/1999/xlink" x="0px" y="0px"
	 width="402.889px" height="402.889px" viewBox="0 0 402.889 402.889" style="enable-background:new 0 0 402.889 402.889;"
	 xml:space="preserve">
<g>
	<g>
		<path d="M386.862,107.558c-15.998-33.989-41.81-55.725-72.678-61.205c-23.666-4.2-48.019,1.629-70.434,16.857
			c-16.206,11.01-30.595,26.403-42.306,45.089c-11.711-18.686-26.1-34.079-42.306-45.089C136.723,47.98,112.367,42.15,88.705,46.353
			c-30.868,5.479-56.68,27.216-72.678,61.205C0.632,140.266-3.863,180.722,3.371,221.474c7.233,40.754,25.377,77.191,51.088,102.604
			c22.369,22.108,48.241,33.785,74.186,33.785c5.044,0,10.092-0.44,15.116-1.333c22.278-3.954,42.306-16.748,57.683-36.553
			c15.377,19.805,35.404,32.599,57.682,36.553c5.026,0.893,10.07,1.333,15.117,1.333c25.943-0.001,51.816-11.679,74.187-33.785
			c25.711-25.411,43.854-61.85,51.088-102.603C406.751,180.722,402.256,140.266,386.862,107.558z M139.918,334.867
			c-23.63,4.2-48.495-5.191-69.992-26.438c-22.503-22.239-38.446-54.486-44.891-90.801c-6.445-36.312-2.575-72.075,10.899-100.702
			C48.805,89.581,68.913,72.21,92.551,68.014c35.771-6.346,73.282,18.333,96.669,63.14c-7.107,15.727-12.294,32.603-15.428,50.254
			c-7.572,42.66-2.113,85.419,14.943,118.525C176.134,319.155,158.98,331.484,139.918,334.867z M377.856,217.629
			c-6.444,36.313-22.388,68.561-44.892,90.8c-21.494,21.245-46.352,30.634-69.992,26.438c-20.72-3.677-39.188-17.915-52.003-40.093
			c-16.995-29.409-22.649-69.328-15.515-109.521c3.112-17.533,8.458-34.181,15.886-49.48c23.171-47.724,62.04-74.319,98.997-67.759
			c23.64,4.196,43.747,21.567,56.618,48.913C380.431,145.553,384.301,181.316,377.856,217.629z"/>
		<path d="M126.191,218.503c-27.028,0-48.938,21.91-48.938,48.938c0,15.2,6.93,28.779,17.802,37.757
			c-0.204-1.168-0.162-2.334,0.173-3.461c1.729-5.824,10.426-8.379,19.427-5.708s14.896,9.558,13.168,15.382
			c-0.619,2.084-2.141,3.741-4.238,4.898c0.863,0.045,1.732,0.069,2.607,0.069c27.028,0,48.938-21.91,48.938-48.938
			C175.13,240.413,153.219,218.503,126.191,218.503z M155.489,246.078c-1.729,5.824-10.427,8.38-19.429,5.708
			c-9-2.671-14.895-9.558-13.166-15.382s10.426-8.38,19.427-5.708C151.322,233.367,157.217,240.254,155.489,246.078z"/>
		<path d="M262.192,218.503c-27.028,0-48.938,21.91-48.938,48.938c0,27.027,21.91,48.938,48.938,48.938
			c0.875,0,1.744-0.024,2.606-0.069c-2.098-1.157-3.618-2.814-4.237-4.898c-1.729-5.824,4.167-12.711,13.168-15.382
			c9-2.671,17.698-0.116,19.427,5.708c0.335,1.127,0.377,2.293,0.173,3.461c10.872-8.978,17.802-22.557,17.802-37.757
			C311.13,240.413,289.22,218.503,262.192,218.503z M252.322,251.786c-9.001,2.672-17.699,0.116-19.428-5.708
			c-1.729-5.824,4.167-12.711,13.167-15.382c9.002-2.672,17.699-0.116,19.428,5.708
			C267.218,242.229,261.323,249.115,252.322,251.786z"/>
	</g>
</g>
<g>
</g>
<g>
</g>
<g>
</g>
<g>
</g>
<g>
</g>
<g>
</g>
<g>
</g>
<g>
</g>
<g>
</g>
<g>
</g>
<g>
</g>
<g>
</g>
<g>
</g>
<g>
</g>
<g>
</g>
</svg>
